<svg width="561" height="431" viewBox="0 0 561 431" fill="none" xmlns="http://www.w3.org/2000/svg">
<g filter="url(#filter0_d_1310_1613)">
<rect x="40.5508" y="24.7734" width="480" height="350" rx="20" fill="#030007"/>
</g>
<mask id="mask0_1310_1613" style="mask-type:alpha" maskUnits="userSpaceOnUse" x="40" y="24" width="481" height="351">
<rect x="40.5508" y="24.7734" width="480" height="350" rx="20" fill="white"/>
</mask>
<g mask="url(#mask0_1310_1613)">
<path d="M210.615 390.402L230.369 383.738L237.316 403.42C237.465 403.849 237.777 404.201 238.185 404.4C238.593 404.598 239.063 404.628 239.492 404.481L259.154 397.811L266.085 417.447C266.241 417.851 266.544 418.181 266.933 418.371C267.323 418.56 267.769 418.596 268.184 418.471L287.922 411.8L294.884 431.489C294.931 431.731 295.028 431.959 295.171 432.16C295.314 432.36 295.497 432.528 295.71 432.651C295.923 432.774 296.16 432.85 296.405 432.874C296.65 432.898 296.897 432.869 297.13 432.788C297.362 432.708 297.575 432.579 297.753 432.41C297.932 432.24 298.071 432.034 298.163 431.806C298.255 431.578 298.297 431.333 298.286 431.087C298.275 430.841 298.211 430.601 298.098 430.382L290.644 409.115C290.496 408.69 290.186 408.34 289.782 408.141C289.377 407.945 288.91 407.917 288.484 408.062L268.745 414.733L261.845 395.074C261.696 394.645 261.383 394.293 260.975 394.094C260.568 393.895 260.098 393.866 259.669 394.012L239.93 400.683L232.968 380.994C232.819 380.566 232.506 380.213 232.099 380.015C231.691 379.816 231.221 379.787 230.792 379.933L209.454 387.142C209.022 387.296 208.668 387.616 208.471 388.03C208.275 388.445 208.251 388.92 208.405 389.353C208.481 389.567 208.599 389.764 208.751 389.932C208.903 390.101 209.087 390.238 209.293 390.335C209.707 390.532 210.183 390.556 210.615 390.402Z" fill="#FFD15B"/>
<path d="M219.407 372.378L239.16 365.715L246.107 385.396C246.256 385.825 246.569 386.177 246.977 386.376C247.384 386.575 247.854 386.604 248.283 386.457L267.96 379.756L274.861 399.416C275.011 399.839 275.322 400.187 275.726 400.384C276.13 400.581 276.595 400.611 277.021 400.469L296.76 393.798L303.676 413.465C303.737 413.694 303.845 413.907 303.992 414.092C304.14 414.277 304.324 414.429 304.534 414.54C304.743 414.65 304.973 414.716 305.209 414.733C305.445 414.75 305.682 414.719 305.905 414.64C306.128 414.561 306.332 414.437 306.505 414.276C306.678 414.115 306.816 413.919 306.91 413.702C307.004 413.485 307.052 413.251 307.051 413.014C307.05 412.777 307 412.544 306.905 412.327L299.443 391.076C299.293 390.653 298.982 390.305 298.578 390.108C298.174 389.911 297.709 389.88 297.283 390.023L277.544 396.693L270.644 377.034C270.495 376.606 270.182 376.254 269.774 376.055C269.367 375.856 268.897 375.827 268.467 375.973L248.729 382.644L241.767 362.955C241.618 362.529 241.309 362.179 240.905 361.98C240.702 361.88 240.482 361.821 240.256 361.806C240.031 361.791 239.805 361.821 239.591 361.894L218.314 369.133C217.916 369.302 217.597 369.615 217.419 370.01C217.242 370.404 217.22 370.851 217.358 371.261C217.496 371.671 217.784 372.014 218.164 372.221C218.543 372.428 218.987 372.484 219.407 372.378Z" fill="#FFD15B"/>
<path d="M228.201 354.335L247.955 347.672L254.902 367.354C255.051 367.782 255.364 368.134 255.771 368.333C256.179 368.532 256.649 368.561 257.078 368.415L276.755 361.714L283.655 381.373C283.806 381.797 284.117 382.144 284.521 382.341C284.925 382.538 285.39 382.569 285.816 382.427L305.57 375.763L312.47 395.422C312.645 395.818 312.963 396.133 313.36 396.305C313.757 396.477 314.204 396.492 314.612 396.348C315.02 396.205 315.359 395.912 315.56 395.53C315.762 395.147 315.812 394.702 315.7 394.284L308.231 373.049C308.082 372.624 307.773 372.274 307.368 372.074C306.973 371.898 306.526 371.878 306.116 372.018L286.378 378.689L279.431 359.007C279.282 358.578 278.969 358.226 278.562 358.028C278.154 357.829 277.684 357.799 277.255 357.946L257.516 364.617L250.554 344.927C250.405 344.499 250.093 344.147 249.685 343.948C249.277 343.749 248.807 343.72 248.378 343.866L227.033 351.091C226.634 351.26 226.315 351.573 226.137 351.968C225.96 352.362 225.938 352.809 226.076 353.219C226.214 353.629 226.502 353.972 226.882 354.179C227.261 354.386 227.705 354.442 228.125 354.336L228.201 354.335Z" fill="#FFD15B"/>
<path d="M237.001 336.29L256.755 329.626L263.702 349.308C263.851 349.737 264.163 350.089 264.571 350.288C264.979 350.486 265.448 350.516 265.878 350.369L285.554 343.668L292.455 363.328C292.605 363.751 292.916 364.098 293.32 364.295C293.724 364.492 294.189 364.523 294.616 364.381L314.354 357.71L321.27 377.377C321.423 377.806 321.74 378.157 322.152 378.352C322.563 378.548 323.036 378.572 323.465 378.419C323.894 378.266 324.245 377.948 324.441 377.537C324.636 377.125 324.66 376.653 324.507 376.223L317.045 354.972C316.897 354.547 316.587 354.197 316.183 353.998C315.777 353.802 315.311 353.774 314.884 353.919L295.146 360.59L288.245 340.931C288.096 340.502 287.784 340.15 287.376 339.951C286.968 339.752 286.499 339.723 286.069 339.869L266.331 346.54L259.369 326.851C259.22 326.423 258.907 326.07 258.499 325.872C258.092 325.673 257.622 325.644 257.192 325.79L235.854 332.999C235.422 333.143 235.065 333.453 234.861 333.86C234.657 334.267 234.623 334.739 234.767 335.172C234.91 335.604 235.22 335.962 235.628 336.166C236.035 336.37 236.507 336.403 236.939 336.26L237.001 336.29Z" fill="#FFD15B"/>
<path d="M258.594 73.3789L262.955 74.2688L265.501 84.9852L263.022 86.7073L258.594 73.3789Z" fill="#FFD15B"/>
<path d="M237.641 88.5703L241.872 87.1891L249.38 95.2487L248.076 97.9706L237.641 88.5703Z" fill="#FFD15B"/>
<path d="M223.941 111.801L226.036 107.873L237.034 108.483L237.979 111.35L223.941 111.801Z" fill="#FFD15B"/>
</g>
<path d="M299.112 204.027C307.633 200.956 312.026 191.632 308.924 183.197L288.067 126.469C285.637 119.853 279.316 115.753 272.591 115.774C265.867 115.753 259.546 119.853 257.116 126.469L236.259 183.197C233.156 191.632 237.55 200.956 246.07 204.027C254.59 207.099 264.008 202.749 267.111 194.314L272.591 179.408L278.072 194.314C281.175 202.749 290.592 207.099 299.112 204.027Z" fill="#0274E6"/>
<path d="M322.203 219.316C319.1 210.881 309.682 206.531 301.162 209.602C292.642 212.674 288.248 221.998 291.351 230.433C294.453 238.868 303.871 243.218 312.391 240.146C320.911 237.08 325.305 227.751 322.203 219.316Z" fill="#FDA220"/>
<path d="M244.022 209.602C235.502 206.531 226.084 210.881 222.982 219.316C219.879 227.751 224.273 237.075 232.793 240.146C241.313 243.218 250.731 238.868 253.833 230.433C256.931 222.003 252.542 212.674 244.022 209.602Z" fill="#FDA220"/>
<path d="M227.584 262.703C228.455 262.703 229.299 262.844 230.113 263.124C230.927 263.407 231.638 263.782 232.245 264.251C232.852 264.72 233.305 265.237 233.608 265.799V263.379H238.612V273.683V284.041H233.608V281.676C233.116 282.538 232.309 283.271 231.191 283.872C230.074 284.473 228.869 284.774 227.581 284.774C224.512 284.774 221.904 283.713 219.763 281.594C217.62 279.474 216.551 276.836 216.551 273.685C216.551 270.534 217.622 267.914 219.763 265.831C221.906 263.743 224.512 262.703 227.584 262.703ZM227.696 267.488C226.066 267.488 224.672 268.098 223.516 269.319C222.359 270.539 221.761 271.994 221.725 273.683C221.761 275.411 222.359 276.884 223.516 278.101C224.672 279.322 226.066 279.932 227.696 279.932C229.363 279.932 230.766 279.369 231.904 278.243C233.043 277.116 233.611 275.606 233.611 273.71C233.611 271.816 233.043 270.304 231.904 269.178C230.768 268.051 229.366 267.488 227.696 267.488Z" fill="white"/>
<path d="M246.007 254.145C246.802 254.145 247.485 254.427 248.053 254.989C248.621 255.551 248.906 256.228 248.906 257.015C248.906 257.803 248.621 258.47 248.053 259.014C247.485 259.558 246.811 259.831 246.034 259.831C245.257 259.831 244.583 259.56 244.015 259.014C243.447 258.47 243.162 257.803 243.162 257.015C243.162 256.228 243.436 255.561 243.988 255.016C244.537 254.472 245.211 254.181 246.007 254.145ZM243.505 263.376H248.566V284.037H243.505V263.376Z" fill="white"/>
<path d="M263.863 262.702C264.734 262.702 265.578 262.843 266.392 263.123C267.206 263.405 267.917 263.781 268.524 264.25C269.131 264.719 269.584 265.235 269.889 265.798V254.875H274.893V273.679V284.037H269.889V281.672C269.397 282.535 268.59 283.268 267.473 283.869C266.355 284.47 265.15 284.77 263.863 284.77C260.793 284.77 258.185 283.709 256.044 281.59C253.901 279.47 252.832 276.832 252.832 273.681C252.832 270.531 253.904 267.91 256.044 265.827C258.185 263.742 260.793 262.702 263.863 262.702ZM263.978 267.487C262.347 267.487 260.954 268.097 259.797 269.317C258.64 270.537 258.043 271.992 258.006 273.681C258.043 275.409 258.64 276.882 259.797 278.1C260.954 279.32 262.347 279.93 263.978 279.93C265.645 279.93 267.047 279.368 268.186 278.241C269.324 277.114 269.892 275.605 269.892 273.709C269.892 271.815 269.324 270.303 268.186 269.176C267.047 268.049 265.645 267.487 263.978 267.487Z" fill="white"/>
<path d="M282.23 265.403C284.467 263.188 287.158 262.082 290.306 262.082C293.451 262.082 296.153 263.191 298.409 265.403C300.665 267.619 301.791 270.282 301.791 273.399C301.791 276.515 300.662 279.188 298.409 281.421C296.153 283.654 293.451 284.77 290.306 284.77C287.158 284.77 284.467 283.654 282.23 281.421C279.993 279.188 278.875 276.515 278.875 273.399C278.873 270.282 279.993 267.619 282.23 265.403ZM294.909 268.893C293.658 267.655 292.131 267.036 290.331 267.036C288.53 267.036 287.004 267.655 285.753 268.893C284.502 270.132 283.876 271.634 283.876 273.396C283.876 275.161 284.502 276.661 285.753 277.899C287.004 279.138 288.53 279.757 290.331 279.757C292.131 279.757 293.658 279.138 294.909 277.899C296.16 276.661 296.786 275.161 296.786 273.396C296.786 271.632 296.16 270.132 294.909 268.893Z" fill="white"/>
<path d="M309.07 265.403C311.307 263.188 313.998 262.082 317.145 262.082C320.291 262.082 322.993 263.191 325.249 265.403C327.505 267.619 328.631 270.282 328.631 273.399C328.631 276.515 327.502 279.188 325.249 281.421C322.993 283.654 320.291 284.77 317.145 284.77C313.998 284.77 311.307 283.654 309.07 281.421C306.832 279.188 305.715 276.515 305.715 273.399C305.715 270.282 306.832 267.619 309.07 265.403ZM321.751 268.893C320.5 267.655 318.974 267.036 317.173 267.036C315.373 267.036 313.846 267.655 312.595 268.893C311.344 270.132 310.718 271.634 310.718 273.396C310.718 275.161 311.344 276.661 312.595 277.899C313.846 279.138 315.373 279.757 317.173 279.757C318.974 279.757 320.5 279.138 321.751 277.899C323.002 276.661 323.628 275.161 323.628 273.396C323.628 271.632 323.002 270.132 321.751 268.893Z" fill="white"/>
<g clip-path="url(#clip0_1310_1613)">
<path d="M415.863 117.013C413.507 124.71 405.347 129.045 397.65 126.689C389.952 124.333 385.618 116.173 387.974 108.476C390.33 100.778 398.489 96.4435 406.187 98.7997C413.884 101.156 418.219 109.315 415.863 117.013Z" stroke="#FFE7B9" stroke-width="3" stroke-linecap="round" stroke-linejoin="round"/>
<path opacity="0.6" d="M404.479 104.375L402.039 112.343" stroke="#FFE7B9" stroke-width="3" stroke-linecap="round" stroke-linejoin="round"/>
<path opacity="0.6" d="M402.625 93.3516L412.187 96.2785" stroke="#FFE7B9" stroke-width="3" stroke-miterlimit="10" stroke-linecap="round" stroke-linejoin="round"/>
</g>
<g clip-path="url(#clip1_1310_1613)">
<path opacity="0.6" d="M127.243 137.354C129.533 136.659 130.825 134.239 130.13 131.949C129.435 129.659 127.015 128.366 124.725 129.061C122.434 129.757 121.142 132.177 121.837 134.467C122.532 136.757 124.952 138.049 127.243 137.354Z" stroke="#93FBA4" stroke-width="3" stroke-linecap="round" stroke-linejoin="round"/>
<path d="M146.345 140.609C147.906 136.353 148.131 131.575 146.714 126.911C145.298 122.246 142.455 118.4 138.791 115.73" stroke="#93FBA4" stroke-width="3" stroke-linecap="round" stroke-linejoin="round"/>
<path d="M105.621 125.803C104.06 130.059 103.835 134.837 105.252 139.502C106.668 144.166 109.512 148.013 113.175 150.682" stroke="#93FBA4" stroke-width="3" stroke-linecap="round" stroke-linejoin="round"/>
<path opacity="0.6" d="M138.202 137.65C139.128 135.104 139.274 132.23 138.424 129.431C137.574 126.632 135.854 124.324 133.67 122.723" stroke="#93FBA4" stroke-width="3" stroke-linecap="round" stroke-linejoin="round"/>
<path opacity="0.6" d="M113.765 128.764C112.84 131.309 112.694 134.184 113.544 136.983C114.393 139.782 116.113 142.09 118.298 143.691" stroke="#93FBA4" stroke-width="3" stroke-linecap="round" stroke-linejoin="round"/>
</g>
<g clip-path="url(#clip2_1310_1613)">
<g opacity="0.6">
<path d="M166.346 290.979L158.502 293.137" stroke="#A56FFF" stroke-width="3" stroke-linecap="round" stroke-linejoin="round"/>
<path d="M163.503 295.981L161.346 288.137" stroke="#A56FFF" stroke-width="3" stroke-linecap="round" stroke-linejoin="round"/>
</g>
<path opacity="0.6" d="M149.26 277.475C149.058 277.51 148.823 277.574 148.613 277.653C143.902 278.78 139.144 275.975 137.85 271.269C136.509 266.47 139.338 261.495 144.142 260.173C148.947 258.852 153.922 261.681 155.244 266.485C156.538 271.191 153.864 276.04 149.26 277.475Z" stroke="#A56FFF" stroke-width="3" stroke-linecap="round" stroke-linejoin="round"/>
<path d="M154.823 299.019C151.254 300.001 147.457 300.075 144.255 299.015C138.635 297.144 137.211 291.967 141.089 287.505C145.489 282.413 154.333 279.981 160.718 282.106" stroke="#A56FFF" stroke-width="3" stroke-linecap="round" stroke-linejoin="round"/>
</g>
<g clip-path="url(#clip3_1310_1613)">
<path d="M401.9 291.074L411.558 293.667C419.607 295.827 423.69 293.472 425.851 285.424L428.444 275.766C430.604 267.718 428.249 263.634 420.201 261.473L410.543 258.88C402.495 256.72 398.411 259.075 396.25 267.123L393.658 276.781C391.497 284.829 393.852 288.913 401.9 291.074Z" stroke="#0274E6" stroke-width="3" stroke-linecap="round" stroke-linejoin="round"/>
<path d="M404.211 274.438L407.543 280.216L419.116 273.556" stroke="#0274E6" stroke-opacity="0.6" stroke-width="3" stroke-linecap="round" stroke-linejoin="round"/>
</g>
<defs>
<filter id="filter0_d_1310_1613" x="0.550781" y="0.773438" width="560" height="430" filterUnits="userSpaceOnUse" color-interpolation-filters="sRGB">
<feFlood flood-opacity="0" result="BackgroundImageFix"/>
<feColorMatrix in="SourceAlpha" type="matrix" values="0 0 0 0 0 0 0 0 0 0 0 0 0 0 0 0 0 0 127 0" result="hardAlpha"/>
<feOffset dy="16"/>
<feGaussianBlur stdDeviation="20"/>
<feComposite in2="hardAlpha" operator="out"/>
<feColorMatrix type="matrix" values="0 0 0 0 0.760486 0 0 0 0 0.772367 0 0 0 0 0.783333 0 0 0 0.2 0"/>
<feBlend mode="normal" in2="BackgroundImageFix" result="effect1_dropShadow_1310_1613"/>
<feBlend mode="normal" in="SourceGraphic" in2="effect1_dropShadow_1310_1613" result="shape"/>
</filter>
<clipPath id="clip0_1310_1613">
<rect width="40" height="40" fill="white" transform="translate(389.258 85.7734) rotate(17.0194)"/>
</clipPath>
<clipPath id="clip1_1310_1613">
<rect width="52" height="52" fill="white" transform="translate(93.5508 115.883) rotate(-16.8904)"/>
</clipPath>
<clipPath id="clip2_1310_1613">
<rect width="48.8109" height="48.8109" fill="white" transform="translate(119.551 262.719) rotate(-15.3785)"/>
</clipPath>
<clipPath id="clip3_1310_1613">
<rect width="40" height="40" fill="white" transform="translate(396.922 251.773) rotate(15.0277)"/>
</clipPath>
</defs>
</svg>
