<svg width="433" height="658" viewBox="0 0 433 658" fill="none" xmlns="http://www.w3.org/2000/svg">
<rect width="433" height="658" fill="#FAFFC6"/>
<g clip-path="url(#clip0_1797_177)">
<path d="M364.479 167.166C361.375 177.308 350.624 183.019 340.482 179.915C330.341 176.811 324.629 166.06 327.733 155.918C330.838 145.776 341.588 140.065 351.73 143.169C361.872 146.274 367.584 157.024 364.479 167.166Z" stroke="#B37807" stroke-width="3" stroke-linecap="round" stroke-linejoin="round"/>
<path opacity="0.6" d="M349.48 150.512L346.267 161.011" stroke="#B37807" stroke-width="3" stroke-linecap="round" stroke-linejoin="round"/>
<path opacity="0.6" d="M347.037 135.989L359.636 139.846" stroke="#B37807" stroke-width="3" stroke-miterlimit="10" stroke-linecap="round" stroke-linejoin="round"/>
</g>
<g clip-path="url(#clip1_1797_177)">
<path opacity="0.6" d="M84.315 180.519C86.8513 179.749 88.283 177.068 87.5129 174.532C86.7427 171.996 84.0626 170.564 81.5263 171.334C78.99 172.104 77.5583 174.785 78.3285 177.321C79.0986 179.857 81.7788 181.289 84.315 180.519Z" stroke="#008615" stroke-width="3" stroke-linecap="round" stroke-linejoin="round"/>
<path d="M105.47 184.119C107.199 179.406 107.448 174.114 105.879 168.948C104.31 163.781 101.161 159.521 97.1035 156.565" stroke="#008615" stroke-width="3" stroke-linecap="round" stroke-linejoin="round"/>
<path d="M60.3671 167.723C58.6383 172.436 58.3894 177.728 59.958 182.894C61.5267 188.06 64.676 192.32 68.7334 195.276" stroke="#008615" stroke-width="3" stroke-linecap="round" stroke-linejoin="round"/>
<path opacity="0.6" d="M96.4519 180.848C97.4768 178.029 97.6385 174.845 96.6973 171.745C95.7561 168.646 93.8514 166.089 91.4321 164.316" stroke="#008615" stroke-width="3" stroke-linecap="round" stroke-linejoin="round"/>
<path opacity="0.6" d="M69.3877 170.998C68.3628 173.817 68.201 177.001 69.1422 180.101C70.0834 183.2 71.9881 185.757 74.4074 187.53" stroke="#008615" stroke-width="3" stroke-linecap="round" stroke-linejoin="round"/>
</g>
<g opacity="0.6">
<path d="M106.844 494.293L97.6509 496.821" stroke="#A56FFF" stroke-width="3" stroke-linecap="round" stroke-linejoin="round"/>
<path d="M103.512 500.154L100.983 490.961" stroke="#A56FFF" stroke-width="3" stroke-linecap="round" stroke-linejoin="round"/>
</g>
<path opacity="0.6" d="M86.8192 478.467C86.5831 478.507 86.3073 478.583 86.0608 478.675C80.5403 479.996 74.9639 476.709 73.4468 471.193C71.8752 465.569 75.1908 459.737 80.8216 458.188C86.4524 456.64 92.2838 459.955 93.8325 465.586C95.3496 471.102 92.2155 476.785 86.8192 478.467Z" stroke="#A56FFF" stroke-width="3" stroke-linecap="round" stroke-linejoin="round"/>
<path d="M93.3397 503.717C89.1569 504.868 84.7061 504.955 80.953 503.713C74.3671 501.519 72.6983 495.452 77.2424 490.222C82.3995 484.255 92.7648 481.404 100.248 483.894" stroke="#A56FFF" stroke-width="3" stroke-linecap="round" stroke-linejoin="round"/>
<g clip-path="url(#clip2_1797_177)">
<path d="M356.545 471.584L366.026 474.13C373.927 476.251 377.936 473.939 380.057 466.038L382.603 456.556C384.724 448.655 382.412 444.646 374.511 442.525L365.029 439.979C357.128 437.858 353.119 440.17 350.998 448.071L348.453 457.553C346.331 465.454 348.643 469.463 356.545 471.584Z" stroke="#0274E6" stroke-width="3" stroke-linecap="round" stroke-linejoin="round"/>
<path d="M358.813 455.249L362.085 460.921L373.446 454.383" stroke="#0274E6" stroke-opacity="0.6" stroke-width="3" stroke-linecap="round" stroke-linejoin="round"/>
</g>
<path d="M259.201 378.274C272.7 373.408 279.662 358.635 274.746 345.27L241.7 255.39C237.849 244.907 227.835 238.41 217.18 238.443C206.525 238.41 196.511 244.907 192.66 255.39L159.614 345.27C154.698 358.635 161.66 373.408 175.16 378.274C188.659 383.141 203.581 376.249 208.497 362.884L217.18 339.267L225.864 362.884C230.779 376.249 245.701 383.141 259.201 378.274Z" fill="#0274E6"/>
<path d="M295.785 402.497C290.87 389.132 275.948 382.24 262.448 387.107C248.949 391.973 241.987 406.746 246.903 420.111C251.818 433.476 266.74 440.368 280.24 435.501C293.739 430.643 300.701 415.862 295.785 402.497Z" fill="#FDA220"/>
<path d="M171.914 387.107C158.414 382.24 143.493 389.132 138.577 402.497C133.661 415.862 140.623 430.635 154.122 435.501C167.622 440.368 182.544 433.476 187.459 420.111C192.367 406.755 185.413 391.973 171.914 387.107Z" fill="#FDA220"/>
<path d="M180.407 209.748L185.335 210.753L188.211 222.86L185.41 224.806L180.407 209.748Z" fill="#FFD15B"/>
<path d="M156.734 226.915L161.515 225.355L169.997 234.46L168.523 237.536L156.734 226.915Z" fill="#FFD15B"/>
<path d="M141.257 253.165L143.623 248.728L156.049 249.417L157.116 252.656L141.257 253.165Z" fill="#FFD15B"/>
<path d="M30.576 54L37.488 37.2H39.408L46.272 54H43.296L37.92 40.392H38.928L33.504 54H30.576ZM33.984 50.76V48.36H42.888V50.76H33.984ZM48.3396 54V42.48H50.9796V54H48.3396ZM49.6596 40.368C49.2116 40.368 48.8356 40.216 48.5316 39.912C48.2436 39.608 48.0996 39.232 48.0996 38.784C48.0996 38.336 48.2436 37.96 48.5316 37.656C48.8356 37.352 49.2116 37.2 49.6596 37.2C50.1236 37.2 50.4996 37.352 50.7876 37.656C51.0756 37.96 51.2196 38.336 51.2196 38.784C51.2196 39.232 51.0756 39.608 50.7876 39.912C50.4996 40.216 50.1236 40.368 49.6596 40.368ZM58.7646 54.24C57.7246 54.24 56.7806 53.976 55.9326 53.448C55.1006 52.92 54.4366 52.208 53.9406 51.312C53.4606 50.4 53.2206 49.384 53.2206 48.264C53.2206 47.128 53.4606 46.112 53.9406 45.216C54.4366 44.304 55.1006 43.584 55.9326 43.056C56.7806 42.512 57.7246 42.24 58.7646 42.24C59.6446 42.24 60.4206 42.432 61.0926 42.816C61.7806 43.184 62.3246 43.696 62.7246 44.352C63.1246 45.008 63.3246 45.752 63.3246 46.584V49.896C63.3246 50.728 63.1246 51.472 62.7246 52.128C62.3406 52.784 61.8046 53.304 61.1166 53.688C60.4286 54.056 59.6446 54.24 58.7646 54.24ZM59.1966 51.744C59.8526 51.744 60.4206 51.6 60.9006 51.312C61.3966 51.008 61.7806 50.592 62.0526 50.064C62.3246 49.536 62.4606 48.928 62.4606 48.24C62.4606 47.552 62.3246 46.944 62.0526 46.416C61.7806 45.888 61.3966 45.48 60.9006 45.192C60.4206 44.888 59.8526 44.736 59.1966 44.736C58.5566 44.736 57.9886 44.888 57.4926 45.192C57.0126 45.48 56.6286 45.888 56.3406 46.416C56.0686 46.944 55.9326 47.552 55.9326 48.24C55.9326 48.928 56.0686 49.536 56.3406 50.064C56.6286 50.592 57.0126 51.008 57.4926 51.312C57.9886 51.6 58.5566 51.744 59.1966 51.744ZM64.9326 54H62.2926V50.904L62.7486 48.096L62.2926 45.312V36.72H64.9326V54ZM73.1424 54.24C72.0224 54.24 71.0064 53.976 70.0944 53.448C69.1824 52.904 68.4544 52.176 67.9104 51.264C67.3824 50.352 67.1184 49.336 67.1184 48.216C67.1184 47.096 67.3824 46.088 67.9104 45.192C68.4544 44.296 69.1824 43.584 70.0944 43.056C71.0064 42.512 72.0224 42.24 73.1424 42.24C74.2784 42.24 75.3024 42.504 76.2144 43.032C77.1264 43.56 77.8464 44.28 78.3744 45.192C78.9184 46.088 79.1904 47.096 79.1904 48.216C79.1904 49.336 78.9184 50.352 78.3744 51.264C77.8464 52.176 77.1264 52.904 76.2144 53.448C75.3024 53.976 74.2784 54.24 73.1424 54.24ZM73.1424 51.696C73.7984 51.696 74.3744 51.552 74.8704 51.264C75.3824 50.96 75.7744 50.544 76.0464 50.016C76.3344 49.488 76.4784 48.888 76.4784 48.216C76.4784 47.544 76.3344 46.952 76.0464 46.44C75.7584 45.928 75.3664 45.528 74.8704 45.24C74.3744 44.936 73.7984 44.784 73.1424 44.784C72.5024 44.784 71.9264 44.936 71.4144 45.24C70.9184 45.528 70.5264 45.928 70.2384 46.44C69.9664 46.952 69.8304 47.544 69.8304 48.216C69.8304 48.888 69.9664 49.488 70.2384 50.016C70.5264 50.544 70.9184 50.96 71.4144 51.264C71.9264 51.552 72.5024 51.696 73.1424 51.696ZM86.6659 54.24C85.5459 54.24 84.5299 53.976 83.6179 53.448C82.7059 52.904 81.9779 52.176 81.4339 51.264C80.9059 50.352 80.6419 49.336 80.6419 48.216C80.6419 47.096 80.9059 46.088 81.4339 45.192C81.9779 44.296 82.7059 43.584 83.6179 43.056C84.5299 42.512 85.5459 42.24 86.6659 42.24C87.8019 42.24 88.8259 42.504 89.7379 43.032C90.6499 43.56 91.3699 44.28 91.8979 45.192C92.4419 46.088 92.7139 47.096 92.7139 48.216C92.7139 49.336 92.4419 50.352 91.8979 51.264C91.3699 52.176 90.6499 52.904 89.7379 53.448C88.8259 53.976 87.8019 54.24 86.6659 54.24ZM86.6659 51.696C87.3219 51.696 87.8979 51.552 88.3939 51.264C88.9059 50.96 89.2979 50.544 89.5699 50.016C89.8579 49.488 90.0019 48.888 90.0019 48.216C90.0019 47.544 89.8579 46.952 89.5699 46.44C89.2819 45.928 88.8899 45.528 88.3939 45.24C87.8979 44.936 87.3219 44.784 86.6659 44.784C86.0259 44.784 85.4499 44.936 84.9379 45.24C84.4419 45.528 84.0499 45.928 83.7619 46.44C83.4899 46.952 83.3539 47.544 83.3539 48.216C83.3539 48.888 83.4899 49.488 83.7619 50.016C84.0499 50.544 84.4419 50.96 84.9379 51.264C85.4499 51.552 86.0259 51.696 86.6659 51.696Z" fill="black"/>
<path d="M37.146 86.18C36.246 86.18 35.412 86.018 34.644 85.694C33.876 85.358 33.204 84.896 32.628 84.308C32.064 83.72 31.626 83.036 31.314 82.256C31.002 81.476 30.846 80.642 30.846 79.754C30.846 78.854 31.002 78.014 31.314 77.234C31.626 76.454 32.064 75.776 32.628 75.2C33.204 74.612 33.87 74.156 34.626 73.832C35.394 73.496 36.228 73.328 37.128 73.328C38.112 73.328 38.976 73.496 39.72 73.832C40.464 74.168 41.124 74.624 41.7 75.2L40.53 76.37C40.134 75.926 39.648 75.578 39.072 75.326C38.508 75.074 37.86 74.948 37.128 74.948C36.468 74.948 35.862 75.068 35.31 75.308C34.758 75.536 34.278 75.866 33.87 76.298C33.462 76.73 33.144 77.24 32.916 77.828C32.7 78.416 32.592 79.058 32.592 79.754C32.592 80.45 32.7 81.092 32.916 81.68C33.144 82.268 33.462 82.778 33.87 83.21C34.278 83.642 34.758 83.978 35.31 84.218C35.862 84.446 36.468 84.56 37.128 84.56C37.908 84.56 38.586 84.434 39.162 84.182C39.738 83.918 40.224 83.564 40.62 83.12L41.79 84.272C41.214 84.872 40.536 85.34 39.756 85.676C38.988 86.012 38.118 86.18 37.146 86.18ZM46.9178 86.18C46.1378 86.18 45.4298 85.988 44.7938 85.604C44.1578 85.208 43.6538 84.674 43.2817 84.002C42.9218 83.33 42.7418 82.574 42.7418 81.734C42.7418 80.894 42.9218 80.138 43.2817 79.466C43.6538 78.794 44.1518 78.26 44.7758 77.864C45.4118 77.468 46.1258 77.27 46.9178 77.27C47.5658 77.27 48.1418 77.408 48.6458 77.684C49.1618 77.948 49.5758 78.32 49.8878 78.8C50.1998 79.268 50.3738 79.814 50.4098 80.438V83.012C50.3738 83.624 50.1998 84.17 49.8878 84.65C49.5878 85.13 49.1798 85.508 48.6638 85.784C48.1598 86.048 47.5778 86.18 46.9178 86.18ZM47.1878 84.65C47.9918 84.65 48.6398 84.38 49.1318 83.84C49.6238 83.288 49.8698 82.586 49.8698 81.734C49.8698 81.146 49.7558 80.636 49.5278 80.204C49.3118 79.76 48.9998 79.418 48.5918 79.178C48.1838 78.926 47.7098 78.8 47.1698 78.8C46.6298 78.8 46.1498 78.926 45.7298 79.178C45.3218 79.43 44.9978 79.778 44.7578 80.222C44.5298 80.654 44.4158 81.152 44.4158 81.716C44.4158 82.292 44.5298 82.802 44.7578 83.246C44.9978 83.678 45.3278 84.02 45.7478 84.272C46.1678 84.524 46.6478 84.65 47.1878 84.65ZM49.7618 86V83.696L50.0678 81.608L49.7618 79.538V77.45H51.3998V86H49.7618ZM56.4763 86.18C55.9963 86.18 55.5403 86.12 55.1083 86C54.6883 85.868 54.2983 85.688 53.9383 85.46C53.5783 85.22 53.2663 84.938 53.0023 84.614L54.0463 83.57C54.3583 83.954 54.7183 84.242 55.1263 84.434C55.5343 84.614 55.9903 84.704 56.4943 84.704C56.9983 84.704 57.3883 84.62 57.6643 84.452C57.9403 84.272 58.0783 84.026 58.0783 83.714C58.0783 83.402 57.9643 83.162 57.7363 82.994C57.5203 82.814 57.2383 82.67 56.8903 82.562C56.5423 82.442 56.1703 82.328 55.7743 82.22C55.3903 82.1 55.0243 81.95 54.6763 81.77C54.3283 81.59 54.0403 81.344 53.8123 81.032C53.5963 80.72 53.4883 80.306 53.4883 79.79C53.4883 79.274 53.6143 78.83 53.8663 78.458C54.1183 78.074 54.4663 77.78 54.9103 77.576C55.3663 77.372 55.9123 77.27 56.5483 77.27C57.2203 77.27 57.8143 77.39 58.3303 77.63C58.8583 77.858 59.2903 78.206 59.6263 78.674L58.5823 79.718C58.3423 79.406 58.0423 79.166 57.6823 78.998C57.3343 78.83 56.9383 78.746 56.4943 78.746C56.0263 78.746 55.6663 78.83 55.4143 78.998C55.1743 79.154 55.0543 79.376 55.0543 79.664C55.0543 79.952 55.1623 80.174 55.3783 80.33C55.5943 80.486 55.8763 80.618 56.2243 80.726C56.5843 80.834 56.9563 80.948 57.3403 81.068C57.7243 81.176 58.0903 81.326 58.4383 81.518C58.7863 81.71 59.0683 81.968 59.2843 82.292C59.5123 82.616 59.6263 83.042 59.6263 83.57C59.6263 84.374 59.3383 85.01 58.7623 85.478C58.1983 85.946 57.4363 86.18 56.4763 86.18ZM65.4 86.18C64.548 86.18 63.78 85.988 63.096 85.604C62.412 85.208 61.872 84.674 61.476 84.002C61.08 83.33 60.882 82.568 60.882 81.716C60.882 80.876 61.074 80.12 61.458 79.448C61.854 78.776 62.382 78.248 63.042 77.864C63.714 77.468 64.464 77.27 65.292 77.27C66.084 77.27 66.78 77.45 67.38 77.81C67.992 78.17 68.466 78.668 68.802 79.304C69.15 79.94 69.324 80.66 69.324 81.464C69.324 81.584 69.318 81.716 69.306 81.86C69.294 81.992 69.27 82.148 69.234 82.328H62.016V80.978H68.37L67.776 81.5C67.776 80.924 67.674 80.438 67.47 80.042C67.266 79.634 66.978 79.322 66.606 79.106C66.234 78.878 65.784 78.764 65.256 78.764C64.704 78.764 64.218 78.884 63.798 79.124C63.378 79.364 63.054 79.7 62.826 80.132C62.598 80.564 62.484 81.074 62.484 81.662C62.484 82.262 62.604 82.79 62.844 83.246C63.084 83.69 63.426 84.038 63.87 84.29C64.314 84.53 64.824 84.65 65.4 84.65C65.88 84.65 66.318 84.566 66.714 84.398C67.122 84.23 67.47 83.978 67.758 83.642L68.802 84.704C68.394 85.184 67.89 85.55 67.29 85.802C66.702 86.054 66.072 86.18 65.4 86.18ZM78.5965 86.18C77.6125 86.18 76.7725 86 76.0765 85.64C75.3805 85.28 74.7625 84.758 74.2225 84.074L75.3745 82.922C75.7705 83.474 76.2265 83.894 76.7425 84.182C77.2585 84.458 77.8945 84.596 78.6505 84.596C79.3945 84.596 79.9885 84.434 80.4325 84.11C80.8885 83.786 81.1165 83.342 81.1165 82.778C81.1165 82.31 81.0085 81.932 80.7925 81.644C80.5765 81.356 80.2825 81.122 79.9105 80.942C79.5505 80.75 79.1545 80.582 78.7225 80.438C78.2905 80.282 77.8585 80.12 77.4265 79.952C76.9945 79.772 76.5985 79.556 76.2385 79.304C75.8785 79.04 75.5845 78.698 75.3565 78.278C75.1405 77.858 75.0325 77.33 75.0325 76.694C75.0325 75.986 75.2005 75.386 75.5365 74.894C75.8845 74.39 76.3525 74.006 76.9405 73.742C77.5405 73.466 78.2125 73.328 78.9565 73.328C79.7725 73.328 80.5045 73.49 81.1525 73.814C81.8005 74.126 82.3285 74.54 82.7365 75.056L81.5845 76.208C81.2125 75.776 80.8105 75.452 80.3785 75.236C79.9585 75.02 79.4725 74.912 78.9205 74.912C78.2485 74.912 77.7145 75.062 77.3185 75.362C76.9225 75.65 76.7245 76.058 76.7245 76.586C76.7245 77.006 76.8325 77.348 77.0485 77.612C77.2765 77.864 77.5705 78.08 77.9305 78.26C78.2905 78.44 78.6865 78.608 79.1185 78.764C79.5625 78.908 80.0005 79.07 80.4325 79.25C80.8645 79.43 81.2605 79.658 81.6205 79.934C81.9805 80.21 82.2685 80.57 82.4845 81.014C82.7125 81.446 82.8265 81.992 82.8265 82.652C82.8265 83.756 82.4425 84.62 81.6745 85.244C80.9185 85.868 79.8925 86.18 78.5965 86.18ZM86.1329 86V73.868H87.7529V86H86.1329ZM84.0269 78.926V77.45H89.8589V78.926H84.0269ZM94.8838 86.18C94.1878 86.18 93.5578 86.024 92.9938 85.712C92.4418 85.388 92.0098 84.944 91.6978 84.38C91.3858 83.816 91.2298 83.162 91.2298 82.418V77.45H92.8498V82.346C92.8498 82.814 92.9278 83.222 93.0838 83.57C93.2518 83.906 93.4918 84.164 93.8038 84.344C94.1158 84.524 94.4818 84.614 94.9018 84.614C95.5378 84.614 96.0358 84.416 96.3958 84.02C96.7558 83.612 96.9358 83.054 96.9358 82.346V77.45H98.5558V82.418C98.5558 83.162 98.3998 83.816 98.0878 84.38C97.7758 84.944 97.3438 85.388 96.7918 85.712C96.2518 86.024 95.6158 86.18 94.8838 86.18ZM104.345 86.18C103.553 86.18 102.845 85.988 102.221 85.604C101.597 85.208 101.099 84.674 100.727 84.002C100.367 83.33 100.187 82.574 100.187 81.734C100.187 80.894 100.367 80.138 100.727 79.466C101.099 78.794 101.597 78.26 102.221 77.864C102.845 77.468 103.553 77.27 104.345 77.27C104.981 77.27 105.557 77.408 106.073 77.684C106.589 77.948 107.003 78.32 107.315 78.8C107.639 79.268 107.819 79.814 107.855 80.438V83.012C107.819 83.624 107.645 84.17 107.333 84.65C107.021 85.13 106.607 85.508 106.091 85.784C105.575 86.048 104.993 86.18 104.345 86.18ZM104.615 84.65C105.155 84.65 105.623 84.524 106.019 84.272C106.427 84.02 106.745 83.678 106.973 83.246C107.201 82.802 107.315 82.298 107.315 81.734C107.315 81.146 107.195 80.636 106.955 80.204C106.727 79.772 106.409 79.43 106.001 79.178C105.605 78.926 105.137 78.8 104.597 78.8C104.057 78.8 103.583 78.926 103.175 79.178C102.767 79.43 102.443 79.778 102.203 80.222C101.975 80.654 101.861 81.152 101.861 81.716C101.861 82.292 101.975 82.802 102.203 83.246C102.443 83.678 102.767 84.02 103.175 84.272C103.595 84.524 104.075 84.65 104.615 84.65ZM108.845 86H107.207V83.696L107.513 81.608L107.207 79.538V73.148H108.845V86ZM114.012 86.072L110.304 77.45H112.104L114.858 84.2H114.282L117.18 77.45H118.98L114.984 86.072H114.012ZM111.564 89.582L114.084 84.416L114.984 86.072L113.364 89.582H111.564Z" fill="#828282"/>
<circle cx="352" cy="577" r="49.5" fill="#5447F6" stroke="black" stroke-width="3"/>
<path d="M363.9 565.953L340.1 589.753" stroke="white" stroke-width="2.5" stroke-miterlimit="10" stroke-linecap="round" stroke-linejoin="round"/>
<path d="M363.9 583.412V565.953H346.441" stroke="white" stroke-width="2.5" stroke-miterlimit="10" stroke-linecap="round" stroke-linejoin="round"/>
<defs>
<clipPath id="clip0_1797_177">
<rect width="52.7023" height="52.7023" fill="white" transform="translate(329.426 126) rotate(17.0194)"/>
</clipPath>
<clipPath id="clip1_1797_177">
<rect width="57.5907" height="57.5907" fill="white" transform="translate(47 156.734) rotate(-16.8904)"/>
</clipPath>
<clipPath id="clip2_1797_177">
<rect width="39.2688" height="39.2688" fill="white" transform="translate(351.657 433) rotate(15.0277)"/>
</clipPath>
</defs>
</svg>
