<svg width="433" height="658" viewBox="0 0 433 658" fill="none" xmlns="http://www.w3.org/2000/svg">
<rect width="433" height="658" fill="#FAFFC6"/>
<g clip-path="url(#clip0_1803_350)">
<path d="M362.05 101.391C358.778 112.081 347.446 118.102 336.756 114.829C326.066 111.557 320.046 100.225 323.318 89.5353C326.59 78.8452 337.922 72.825 348.612 76.0972C359.302 79.3694 365.322 90.7011 362.05 101.391Z" stroke="#B37807" stroke-width="3" stroke-linecap="round" stroke-linejoin="round"/>
<path opacity="0.6" d="M346.24 83.8374L342.853 94.9037" stroke="#B37807" stroke-width="3" stroke-linecap="round" stroke-linejoin="round"/>
<path opacity="0.6" d="M343.666 68.5294L356.945 72.5943" stroke="#B37807" stroke-width="3" stroke-miterlimit="10" stroke-linecap="round" stroke-linejoin="round"/>
</g>
<g clip-path="url(#clip1_1803_350)">
<path opacity="0.6" d="M83.1813 114.005C85.8546 113.193 87.3637 110.368 86.5519 107.695C85.7402 105.022 82.9151 103.512 80.2418 104.324C77.5684 105.136 76.0593 107.961 76.8711 110.634C77.6828 113.308 80.5079 114.817 83.1813 114.005Z" stroke="#008615" stroke-width="3" stroke-linecap="round" stroke-linejoin="round"/>
<path d="M105.48 117.8C107.302 112.832 107.564 107.254 105.911 101.809C104.258 96.3631 100.938 91.8728 96.6613 88.757" stroke="#008615" stroke-width="3" stroke-linecap="round" stroke-linejoin="round"/>
<path d="M57.9392 100.518C56.117 105.485 55.8545 111.063 57.508 116.509C59.1615 121.954 62.481 126.444 66.7577 129.56" stroke="#008615" stroke-width="3" stroke-linecap="round" stroke-linejoin="round"/>
<path opacity="0.6" d="M95.9745 114.352C97.0547 111.381 97.2252 108.025 96.2332 104.758C95.2411 101.49 93.2334 98.7958 90.6834 96.9268" stroke="#008615" stroke-width="3" stroke-linecap="round" stroke-linejoin="round"/>
<path opacity="0.6" d="M67.447 103.97C66.3667 106.941 66.1961 110.297 67.1882 113.564C68.1803 116.832 70.188 119.526 72.738 121.395" stroke="#008615" stroke-width="3" stroke-linecap="round" stroke-linejoin="round"/>
</g>
<g clip-path="url(#clip2_1803_350)">
<g opacity="0.6">
<path d="M99.8086 489.77L90.1186 492.436" stroke="#A56FFF" stroke-width="3" stroke-linecap="round" stroke-linejoin="round"/>
<path d="M96.2964 495.948L93.6312 486.258" stroke="#A56FFF" stroke-width="3" stroke-linecap="round" stroke-linejoin="round"/>
</g>
<path opacity="0.6" d="M78.7016 473.089C78.4527 473.131 78.162 473.211 77.9021 473.309C72.0832 474.701 66.2055 471.236 64.6064 465.422C62.9497 459.494 66.4446 453.347 72.3798 451.715C78.3149 450.082 84.4616 453.577 86.094 459.512C87.6931 465.326 84.3896 471.316 78.7016 473.089Z" stroke="#A56FFF" stroke-width="3" stroke-linecap="round" stroke-linejoin="round"/>
<path d="M85.5743 499.705C81.1654 500.917 76.4741 501.009 72.5181 499.7C65.5762 497.388 63.8172 490.992 68.6069 485.48C74.0428 479.19 84.9684 476.185 92.8562 478.81" stroke="#A56FFF" stroke-width="3" stroke-linecap="round" stroke-linejoin="round"/>
</g>
<g clip-path="url(#clip3_1803_350)">
<path d="M356.131 463.779L368.554 467.114C378.907 469.894 384.16 466.864 386.939 456.512L390.274 444.088C393.054 433.736 390.024 428.483 379.672 425.703L367.248 422.368C356.896 419.589 351.643 422.618 348.863 432.971L345.528 445.394C342.749 455.747 345.778 461 356.131 463.779Z" stroke="#0274E6" stroke-width="3" stroke-linecap="round" stroke-linejoin="round"/>
<path d="M359.103 442.375L363.39 449.808L378.276 441.24" stroke="#0274E6" stroke-opacity="0.6" stroke-width="3" stroke-linecap="round" stroke-linejoin="round"/>
</g>
<path d="M260.2 348.274C273.7 343.408 280.662 328.635 275.746 315.27L242.7 225.39C238.849 214.907 228.835 208.41 218.18 208.443C207.525 208.41 197.511 214.907 193.66 225.39L160.614 315.27C155.698 328.635 162.66 343.408 176.159 348.274C189.659 353.141 204.581 346.249 209.496 332.884L218.18 309.267L226.863 332.884C231.779 346.249 246.701 353.141 260.2 348.274Z" fill="#0274E6"/>
<path d="M296.785 372.497C291.87 359.133 276.948 352.24 263.448 357.107C249.949 361.973 242.987 376.746 247.903 390.111C252.818 403.476 267.74 410.368 281.24 405.501C294.739 400.643 301.701 385.862 296.785 372.497Z" fill="#FDA220"/>
<path d="M172.914 357.107C159.414 352.24 144.493 359.133 139.577 372.497C134.661 385.862 141.623 400.635 155.122 405.501C168.622 410.368 183.544 403.476 188.459 390.111C193.367 376.755 186.413 361.973 172.914 357.107Z" fill="#FDA220"/>
<path d="M181.407 179.748L186.335 180.753L189.211 192.86L186.41 194.806L181.407 179.748Z" fill="#FFD15B"/>
<path d="M157.734 196.915L162.515 195.355L170.997 204.46L169.523 207.536L157.734 196.915Z" fill="#FFD15B"/>
<path d="M142.257 223.165L144.623 218.728L157.048 219.417L158.116 222.656L142.257 223.165Z" fill="#FFD15B"/>
<defs>
<clipPath id="clip0_1803_350">
<rect width="55.5511" height="55.5511" fill="white" transform="translate(325.102 58) rotate(17.0194)"/>
</clipPath>
<clipPath id="clip1_1803_350">
<rect width="60.7037" height="60.7037" fill="white" transform="translate(43.8494 88.9351) rotate(-16.8904)"/>
</clipPath>
<clipPath id="clip2_1803_350">
<rect width="60.299" height="60.299" fill="white" transform="translate(42 454.859) rotate(-15.3785)"/>
</clipPath>
<clipPath id="clip3_1803_350">
<rect width="51.4531" height="51.4531" fill="white" transform="translate(349.727 413.223) rotate(15.0277)"/>
</clipPath>
</defs>
</svg>
