<svg width="70" height="70" viewBox="0 0 70 70" fill="none" xmlns="http://www.w3.org/2000/svg">
<circle cx="35" cy="35" r="33.5" fill="#CCFD53" stroke="black" stroke-width="3"/>
<g filter="url(#filter0_d_2209_20144)">
<path d="M26.4222 23.2178C26.9497 22.8787 27.5447 22.5735 28.2074 22.3022C28.87 22.0173 29.5665 21.78 30.2968 21.5901C31.0406 21.4002 31.8047 21.2577 32.589 21.1628C33.3869 21.0543 34.1848 21 34.9827 21C36.0376 21 37.0789 21.095 38.1067 21.2849C39.148 21.4748 40.0947 21.7732 40.9467 22.1801C41.7986 22.587 42.5289 23.1161 43.1375 23.7671C43.7461 24.4047 44.1585 25.1711 44.3749 26.0663L49 45.2532C48.3779 46.0535 47.5056 46.7114 46.3832 47.2268C45.2607 47.7423 43.8407 48 42.1232 48C41.3659 48 40.6559 47.9322 39.9932 47.7965C39.3306 47.6609 38.7423 47.4642 38.2284 47.2065C37.728 46.9352 37.3088 46.6029 36.9707 46.2095C36.6461 45.8026 36.4365 45.3278 36.3418 44.7852L35.8956 42.3029C36.3148 42.2894 36.7273 42.2419 37.133 42.1605C37.5522 42.0656 37.9241 41.957 38.2487 41.835C38.5868 41.6993 38.8573 41.5501 39.0601 41.3873C39.2765 41.2246 39.3847 41.0618 39.3847 40.899C39.3847 40.682 39.2968 40.5057 39.121 40.37C38.8775 40.5463 38.5935 40.7091 38.269 40.8583C37.9444 40.994 37.5995 41.1093 37.2344 41.2042C36.8828 41.2992 36.5244 41.3738 36.1593 41.428C35.8077 41.4687 35.4763 41.4891 35.1653 41.4891C34.5838 41.4891 34.0631 41.4552 33.6033 41.3873C33.157 41.306 32.7648 41.211 32.4267 41.1025C32.0887 40.994 31.7979 40.8787 31.5545 40.7566C31.311 40.621 31.1082 40.4921 30.9459 40.37C30.8918 40.4378 30.8445 40.5192 30.8039 40.6142C30.7633 40.6956 30.7431 40.7905 30.7431 40.899C30.7431 41.1025 30.8445 41.2924 31.0473 41.4687C31.2637 41.6315 31.5477 41.7807 31.8993 41.9164C32.2509 42.0384 32.6499 42.1402 33.0962 42.2216C33.556 42.3029 34.0361 42.3572 34.5364 42.3843C34.6176 43.3338 34.7055 44.0934 34.8001 44.6632C34.9083 45.2193 35.0098 45.572 35.1044 45.7212C34.9827 45.9518 34.7393 46.2027 34.3742 46.474C34.0225 46.7317 33.5763 46.9759 33.0353 47.2065C32.5079 47.4371 31.8993 47.627 31.2096 47.7762C30.5334 47.9254 29.8099 48 29.0391 48C28.0789 48 27.1728 47.8915 26.3208 47.6745C25.4688 47.4574 24.725 47.159 24.0894 46.7792C23.4538 46.3858 22.9467 45.9179 22.568 45.3753C22.1893 44.8191 22 44.202 22 43.5237C22 43.3745 22.0068 43.2253 22.0203 43.0761C22.0338 42.9133 22.0609 42.7506 22.1014 42.5878L26.4222 23.2178ZM35.9564 33.6963C35.8077 32.8824 35.686 32.2313 35.5913 31.743C35.5101 31.2547 35.4222 30.8885 35.3276 30.6443C35.2464 30.3866 35.1518 30.2238 35.0436 30.156C34.9489 30.0746 34.8272 30.0339 34.6784 30.0339C34.5838 30.0339 34.4959 30.0475 34.4147 30.0746C34.3336 30.1017 34.2592 30.1289 34.1916 30.156L34.9624 34.266C35.0165 34.3203 35.0909 34.361 35.1856 34.3881C35.2938 34.4152 35.3884 34.4288 35.4696 34.4288C35.5913 34.4288 35.7062 34.4152 35.8144 34.3881C35.9226 34.3474 36.0038 34.3135 36.0579 34.2864L35.9564 33.6963Z" fill="white"/>
<path d="M21.2731 43.0112C21.2577 43.1819 21.25 43.3528 21.25 43.5237C21.25 44.3512 21.4839 45.1157 21.9481 45.7974L21.948 45.7974L21.953 45.8045C22.3972 46.4411 22.9835 46.9768 23.6947 47.4169L23.6947 47.417L23.7047 47.423C24.4128 47.8462 25.2262 48.1696 26.1357 48.4012C27.0534 48.635 28.0221 48.75 29.0391 48.75C29.8577 48.75 30.6353 48.6708 31.3697 48.5089C32.0957 48.3518 32.7518 48.1487 33.3326 47.8951C33.908 47.6496 34.4075 47.3795 34.8175 47.0789L34.8175 47.0789L34.8214 47.076C35.2191 46.7806 35.5683 46.4491 35.7677 46.0713L35.8839 45.8511C36.0139 46.1456 36.1805 46.4216 36.3844 46.6772L36.3929 46.6879L36.4019 46.6984C36.805 47.1674 37.2981 47.5553 37.8709 47.8658L37.8815 47.8715L37.8922 47.8769C38.4742 48.1688 39.1267 48.3847 39.8428 48.5313C40.5605 48.6782 41.3213 48.75 42.1232 48.75C43.9092 48.75 45.445 48.4829 46.6962 47.9084C47.9045 47.3535 48.8817 46.6275 49.5921 45.7135L49.8137 45.4284L49.7291 45.0774L45.104 25.8906L45.1039 25.8901C44.8583 24.8739 44.3851 23.989 43.6827 23.2521C43.007 22.53 42.2001 21.9476 41.2699 21.5033C40.3515 21.0647 39.3407 20.7476 38.2422 20.5472C37.1693 20.349 36.0826 20.25 34.9827 20.25C34.1525 20.25 33.3227 20.3063 32.4934 20.4189C31.6797 20.5176 30.8856 20.6657 30.1112 20.8634L30.1112 20.8634L30.108 20.8642C29.3449 21.0626 28.6144 21.3112 27.9172 21.6106C27.2204 21.8962 26.5858 22.221 26.0166 22.5869L25.7573 22.7536L25.6902 23.0545L21.3713 42.4159C21.3228 42.6127 21.2899 42.8113 21.2731 43.0112ZM21.2731 43.0112C21.273 43.0121 21.2729 43.0131 21.2729 43.014L22.0203 43.0761L21.2733 43.0084C21.2733 43.0093 21.2732 43.0102 21.2731 43.0112Z" stroke="black" stroke-width="1.5"/>
</g>
<defs>
<filter id="filter0_d_2209_20144" x="20.5" y="19.5" width="30.1274" height="35" filterUnits="userSpaceOnUse" color-interpolation-filters="sRGB">
<feFlood flood-opacity="0" result="BackgroundImageFix"/>
<feColorMatrix in="SourceAlpha" type="matrix" values="0 0 0 0 0 0 0 0 0 0 0 0 0 0 0 0 0 0 127 0" result="hardAlpha"/>
<feOffset dy="5"/>
<feComposite in2="hardAlpha" operator="out"/>
<feColorMatrix type="matrix" values="0 0 0 0 0 0 0 0 0 0 0 0 0 0 0 0 0 0 1 0"/>
<feBlend mode="normal" in2="BackgroundImageFix" result="effect1_dropShadow_2209_20144"/>
<feBlend mode="normal" in="SourceGraphic" in2="effect1_dropShadow_2209_20144" result="shape"/>
</filter>
</defs>
</svg>
