<svg width="35" height="35" viewBox="0 0 35 35" fill="none" xmlns="http://www.w3.org/2000/svg">
<g clip-path="url(#clip0_1272_633)">
<path d="M30.2273 0H4.77273C2.13682 0 0 2.13682 0 4.77273V30.2273C0 32.8632 2.13682 35 4.77273 35H30.2273C32.8632 35 35 32.8632 35 30.2273V4.77273C35 2.13682 32.8632 0 30.2273 0Z" fill="#CBCBCB"/>
<path d="M20.7734 11.5234H26.2561V12.8876H20.7734V11.5234Z" fill="white"/>
<path d="M28.4376 19.1917C28.4376 16.344 26.2322 14.0352 23.5137 14.0352C20.7952 14.0352 18.5898 16.344 18.5898 19.1917C18.5898 22.0394 20.6361 24.3462 23.5137 24.3462C25.7012 24.3462 27.5705 23.3837 28.2049 21.0729H25.8961C25.6841 21.4685 25.3686 21.7991 24.9833 22.0292C24.598 22.2593 24.1574 22.3804 23.7086 22.3795C22.418 22.3795 21.2825 21.4548 21.3501 19.8996H28.3998C28.4376 19.6729 28.4376 19.4383 28.4376 19.1917V19.1917ZM21.358 18.1795C21.529 16.8988 22.4339 16.0815 23.5256 16.0815C24.6174 16.0815 25.5143 16.8988 25.6933 18.1795H21.358Z" fill="white"/>
<path d="M17.7466 19.4083C17.5676 17.4316 15.3324 16.7654 15.3324 16.7654C16.1815 16.3677 17.1938 15.5543 17.1838 13.7626C17.1679 11.1773 14.4713 10.6523 13.6043 10.6523H6.5625V24.0995H12.9599C13.8489 24.0995 14.7955 23.9822 15.5452 23.6083C17.5676 22.614 17.9216 21.387 17.7466 19.4083V19.4083ZM9.52159 12.9731H12.5483C12.5483 12.9731 14.3381 12.9313 14.3381 14.5143C14.3381 16.0972 12.5483 16.0535 12.5483 16.0535H9.52159V12.9731ZM12.7273 21.8165H9.52159V18.1396H12.7273C12.7273 18.1396 14.8591 18.0898 14.8591 19.9771C14.8591 21.8643 12.7273 21.8165 12.7273 21.8165Z" fill="white"/>
</g>
<defs>
<clipPath id="clip0_1272_633">
<rect width="35" height="35" fill="white"/>
</clipPath>
</defs>
</svg>
