<svg width="176" height="54" viewBox="0 0 176 54" fill="none" xmlns="http://www.w3.org/2000/svg">
<rect x="1.5" y="1.5" width="173" height="51" rx="25.5" fill="#CCFD53" stroke="black" stroke-width="3"/>
<path d="M43.0453 34.2344C42.0187 34.2344 41.0653 34.0544 40.1853 33.6944C39.3053 33.3211 38.532 32.8078 37.8653 32.1544C37.212 31.4878 36.7053 30.7144 36.3453 29.8344C35.9987 28.9544 35.8253 28.0078 35.8253 26.9944C35.8253 25.9811 35.9987 25.0344 36.3453 24.1544C36.7053 23.2744 37.212 22.5078 37.8653 21.8544C38.532 21.2011 39.2987 20.6878 40.1653 20.3144C41.0453 19.9411 42.0053 19.7544 43.0453 19.7544C44.1653 19.7544 45.152 19.9411 46.0053 20.3144C46.8587 20.6744 47.612 21.1744 48.2653 21.8144L46.4253 23.6544C46.0387 23.2278 45.5653 22.8944 45.0053 22.6544C44.4453 22.4144 43.792 22.2944 43.0453 22.2944C42.392 22.2944 41.792 22.4078 41.2453 22.6344C40.712 22.8478 40.2453 23.1678 39.8453 23.5944C39.4453 24.0078 39.1387 24.5078 38.9253 25.0944C38.712 25.6678 38.6053 26.3011 38.6053 26.9944C38.6053 27.7011 38.712 28.3411 38.9253 28.9144C39.1387 29.4878 39.4453 29.9878 39.8453 30.4144C40.2453 30.8278 40.712 31.1478 41.2453 31.3744C41.792 31.6011 42.392 31.7144 43.0453 31.7144C43.832 31.7144 44.5053 31.5944 45.0653 31.3544C45.6387 31.1144 46.1187 30.7744 46.5053 30.3344L48.3453 32.1744C47.692 32.8278 46.932 33.3344 46.0653 33.6944C45.1987 34.0544 44.192 34.2344 43.0453 34.2344ZM54.2424 34.2344C53.269 34.2344 52.389 34.0144 51.6024 33.5744C50.829 33.1211 50.209 32.5144 49.7424 31.7544C49.289 30.9811 49.0624 30.1211 49.0624 29.1744C49.0624 28.2278 49.289 27.3811 49.7424 26.6344C50.1957 25.8744 50.8157 25.2744 51.6024 24.8344C52.389 24.3811 53.2624 24.1544 54.2224 24.1544C55.209 24.1544 56.089 24.3811 56.8624 24.8344C57.649 25.2744 58.269 25.8744 58.7224 26.6344C59.1757 27.3811 59.4024 28.2278 59.4024 29.1744C59.4024 30.1211 59.1757 30.9811 58.7224 31.7544C58.269 32.5144 57.649 33.1211 56.8624 33.5744C56.089 34.0144 55.2157 34.2344 54.2424 34.2344ZM54.2224 31.7944C54.7157 31.7944 55.149 31.6878 55.5224 31.4744C55.909 31.2478 56.2024 30.9411 56.4024 30.5544C56.6157 30.1544 56.7224 29.7011 56.7224 29.1944C56.7224 28.6878 56.6157 28.2411 56.4024 27.8544C56.189 27.4678 55.8957 27.1678 55.5224 26.9544C55.149 26.7278 54.7157 26.6144 54.2224 26.6144C53.7424 26.6144 53.3157 26.7278 52.9424 26.9544C52.569 27.1678 52.2757 27.4678 52.0624 27.8544C51.849 28.2411 51.7424 28.6878 51.7424 29.1944C51.7424 29.7011 51.849 30.1544 52.0624 30.5544C52.2757 30.9411 52.569 31.2478 52.9424 31.4744C53.3157 31.6878 53.7424 31.7944 54.2224 31.7944ZM67.5891 34.0344V28.4944C67.5891 27.9211 67.4091 27.4544 67.0491 27.0944C66.6891 26.7344 66.2224 26.5544 65.6491 26.5544C65.2757 26.5544 64.9424 26.6344 64.6491 26.7944C64.3557 26.9544 64.1224 27.1811 63.9491 27.4744C63.7891 27.7678 63.7091 28.1078 63.7091 28.4944L62.6891 27.9744C62.6891 27.2144 62.8491 26.5544 63.1691 25.9944C63.5024 25.4211 63.9557 24.9744 64.5291 24.6544C65.1157 24.3344 65.7757 24.1744 66.5091 24.1744C67.2157 24.1744 67.8491 24.3544 68.4091 24.7144C68.9691 25.0611 69.4091 25.5211 69.7291 26.0944C70.0491 26.6544 70.2091 27.2611 70.2091 27.9144V34.0344H67.5891ZM61.0891 34.0344V24.3744H63.7091V34.0344H61.0891ZM73.6224 34.0344V20.3544H76.2424V34.0344H73.6224ZM71.3624 26.6744V24.3744H78.5024V26.6744H71.3624ZM83.7814 34.2344C82.9014 34.2344 82.1081 34.0144 81.4014 33.5744C80.6948 33.1344 80.1414 32.5344 79.7414 31.7744C79.3414 31.0144 79.1414 30.1611 79.1414 29.2144C79.1414 28.2544 79.3414 27.3944 79.7414 26.6344C80.1414 25.8744 80.6948 25.2744 81.4014 24.8344C82.1081 24.3944 82.9014 24.1744 83.7814 24.1744C84.4748 24.1744 85.0948 24.3144 85.6414 24.5944C86.1881 24.8744 86.6214 25.2678 86.9414 25.7744C87.2748 26.2678 87.4548 26.8278 87.4814 27.4544V30.9344C87.4548 31.5744 87.2748 32.1411 86.9414 32.6344C86.6214 33.1278 86.1881 33.5211 85.6414 33.8144C85.0948 34.0944 84.4748 34.2344 83.7814 34.2344ZM84.2614 31.8144C84.9948 31.8144 85.5881 31.5744 86.0414 31.0944C86.4948 30.6011 86.7214 29.9678 86.7214 29.1944C86.7214 28.6878 86.6148 28.2411 86.4014 27.8544C86.2014 27.4544 85.9148 27.1478 85.5414 26.9344C85.1814 26.7078 84.7548 26.5944 84.2614 26.5944C83.7814 26.5944 83.3548 26.7078 82.9814 26.9344C82.6214 27.1478 82.3348 27.4544 82.1214 27.8544C81.9214 28.2411 81.8214 28.6878 81.8214 29.1944C81.8214 29.7144 81.9214 30.1744 82.1214 30.5744C82.3348 30.9611 82.6214 31.2678 82.9814 31.4944C83.3548 31.7078 83.7814 31.8144 84.2614 31.8144ZM86.5814 34.0344V31.4344L87.0014 29.0744L86.5814 26.7544V24.3744H89.1814V34.0344H86.5814ZM96.0592 34.2344C95.0726 34.2344 94.1859 34.0144 93.3992 33.5744C92.6126 33.1344 91.9926 32.5344 91.5392 31.7744C91.0859 31.0144 90.8592 30.1611 90.8592 29.2144C90.8592 28.2544 91.0859 27.3944 91.5392 26.6344C91.9926 25.8744 92.6126 25.2744 93.3992 24.8344C94.1992 24.3811 95.0859 24.1544 96.0592 24.1544C96.8192 24.1544 97.5192 24.2944 98.1592 24.5744C98.7992 24.8544 99.3526 25.2544 99.8192 25.7744L98.1392 27.4744C97.8859 27.1944 97.5792 26.9811 97.2192 26.8344C96.8726 26.6878 96.4859 26.6144 96.0592 26.6144C95.5792 26.6144 95.1459 26.7278 94.7592 26.9544C94.3859 27.1678 94.0859 27.4678 93.8592 27.8544C93.6459 28.2278 93.5392 28.6744 93.5392 29.1944C93.5392 29.7011 93.6459 30.1544 93.8592 30.5544C94.0859 30.9411 94.3859 31.2478 94.7592 31.4744C95.1459 31.6878 95.5792 31.7944 96.0592 31.7944C96.4992 31.7944 96.8926 31.7211 97.2392 31.5744C97.5992 31.4144 97.9059 31.1878 98.1592 30.8944L99.8592 32.5944C99.3659 33.1278 98.7992 33.5344 98.1592 33.8144C97.5192 34.0944 96.8192 34.2344 96.0592 34.2344ZM102.607 34.0344V20.3544H105.227V34.0344H102.607ZM100.347 26.6744V24.3744H107.487V26.6744H100.347ZM113.146 34.0344V19.9744H115.066L120.766 29.0944H119.666L125.346 19.9744H127.266V34.0344H124.566V24.6344L125.086 24.7944L121.126 31.1544H119.286L115.326 24.7944L115.866 24.6344V34.0344H113.146ZM134.479 34.2344C133.465 34.2344 132.565 34.0211 131.779 33.5944C130.992 33.1544 130.365 32.5544 129.899 31.7944C129.445 31.0344 129.219 30.1678 129.219 29.1944C129.219 28.2344 129.439 27.3811 129.879 26.6344C130.332 25.8744 130.945 25.2744 131.719 24.8344C132.492 24.3811 133.352 24.1544 134.299 24.1544C135.232 24.1544 136.052 24.3678 136.759 24.7944C137.479 25.2078 138.039 25.7811 138.439 26.5144C138.852 27.2344 139.059 28.0544 139.059 28.9744C139.059 29.1478 139.045 29.3278 139.019 29.5144C139.005 29.6878 138.972 29.8878 138.919 30.1144L130.799 30.1344V28.1744L137.699 28.1544L136.639 28.9744C136.612 28.4011 136.505 27.9211 136.319 27.5344C136.145 27.1478 135.885 26.8544 135.539 26.6544C135.205 26.4411 134.792 26.3344 134.299 26.3344C133.779 26.3344 133.325 26.4544 132.939 26.6944C132.552 26.9211 132.252 27.2478 132.039 27.6744C131.839 28.0878 131.739 28.5811 131.739 29.1544C131.739 29.7411 131.845 30.2544 132.059 30.6944C132.285 31.1211 132.605 31.4544 133.019 31.6944C133.432 31.9211 133.912 32.0344 134.459 32.0344C134.952 32.0344 135.399 31.9544 135.799 31.7944C136.199 31.6211 136.545 31.3678 136.839 31.0344L138.379 32.5744C137.912 33.1211 137.339 33.5344 136.659 33.8144C135.992 34.0944 135.265 34.2344 134.479 34.2344Z" fill="black"/>
</svg>
