<svg width="202" height="137" viewBox="0 0 202 137" fill="none" xmlns="http://www.w3.org/2000/svg">
<path d="M44.5795 38.3197C44.5795 38.3197 38.5662 -7.33434 82.5082 7.43644C126.453 22.2072 112.135 64.0093 95.3788 49.7029C78.6258 35.3996 110.059 -13.1139 143.686 8.48675C177.313 30.0874 169.791 72.0048 145.938 75.098C122.085 78.1911 160.378 26.2931 190.424 58.345C220.472 90.397 154.869 148.834 128.038 127.348C101.207 105.863 122.204 71.1852 128.642 92.3184C135.077 113.452 117.723 134.178 70.1385 133.358C22.5539 132.539 44.2122 59.3315 60.8468 80.6408C77.4784 101.95 49.8674 126.003 16.3007 100.897C-17.2629 75.7961 21.027 23.898 44.5795 38.3197Z" fill="white"/>
<path d="M72.7827 136.425C71.8902 136.425 70.9978 136.419 70.0871 136.401C54.4634 136.133 43.487 128.126 39.6349 114.336C32.0279 113.388 23.4283 110.025 14.4766 103.335C-4.8626 88.8706 -2.58294 66.2713 8.25079 50.2894C16.137 38.6543 29.3385 30.0759 41.2498 33.5273C41.183 26.4212 42.4154 13.754 51.1304 6.57501C58.5218 0.497919 69.4224 -0.194239 83.4798 4.53812C90.0942 6.75708 95.3061 9.50118 99.4193 12.4547C110.563 0.752845 127.977 -5.23014 145.34 5.91321C162.357 16.8471 168.762 32.0307 169.388 44.8406C177.757 45.1259 185.834 48.978 192.655 56.2511C206.278 70.7851 203.279 92.9412 185.012 112.69C168.489 130.557 142.232 142.593 126.138 129.719C123.989 127.992 122.11 126.171 120.477 124.286C109.998 132.187 93.5213 136.425 72.7827 136.425ZM46.0884 114.569C48.8022 122.295 55.2556 130.05 70.1934 130.308C90.8227 130.706 107.132 126.827 116.883 119.393C111.021 109.895 110.538 99.4585 113.364 91.7514C115.426 86.1448 119.089 82.6934 122.978 82.6934C123.045 82.6934 123.102 82.6934 123.163 82.6934C125.324 82.7602 129.289 83.9744 131.562 91.4326C134.425 100.831 132.901 110.116 127.27 117.581C126.575 118.503 125.825 119.39 125.021 120.24C126.408 121.857 128.044 123.442 129.95 124.966C142.693 135.18 165.669 124.632 180.543 108.562C193.216 94.8597 201.883 75.0227 188.205 60.428C181.682 53.4645 175.098 51.0421 169.26 50.8691C169.105 52.5234 168.85 54.108 168.517 55.6075C165.712 68.0835 157.212 76.7134 146.339 78.1249C138.732 79.0963 136.483 75.1501 135.87 73.3986C133.645 67.0301 140.547 56.3209 150.953 50.0131C155.012 47.5544 159.173 45.9789 163.317 45.2686C162.81 34.1192 157.167 20.7629 142.05 11.0554C127.033 1.39638 113.003 7.22762 104.133 16.3584C112.9 24.7516 114.442 33.761 114.697 37.264C115.262 45.1077 112.22 51.9012 106.959 54.5603C102.74 56.6973 97.7983 55.7684 93.412 52.0195C83.9473 43.9421 87.2863 28.4488 95.5065 17.1628C91.9185 14.6403 87.3531 12.2756 81.5431 10.3238C69.6106 6.31695 60.6801 6.63267 55.0249 11.2831C45.3174 19.2543 47.5849 37.7344 47.6092 37.9257C47.7579 39.0852 47.2298 40.2357 46.2402 40.8732C45.2627 41.5167 43.9909 41.5289 42.9952 40.9218C33.233 34.951 20.6751 42.8493 13.2988 53.7194C4.08608 67.3094 2.01283 86.4088 18.1314 98.4689C25.3984 103.909 32.3102 106.886 38.4207 108.028C36.8665 93.946 42.206 78.471 50.4686 74.6189C52.5631 73.6293 58.0271 72.0782 63.2542 78.7745C70.8065 88.4517 70.8005 99.6892 63.236 107.418C59.302 111.412 53.3433 114.15 46.0884 114.569ZM122.978 88.7827C122.328 88.7827 120.483 90.0393 119.086 93.8428C117.402 98.4386 116.734 106.777 121.421 115.128C121.767 114.73 122.095 114.317 122.401 113.907C126.894 107.949 128.044 100.794 125.728 93.1993C124.757 90.009 123.536 88.8009 122.99 88.7827C122.99 88.7827 122.984 88.7827 122.978 88.7827ZM54.3905 79.7884C53.7713 79.7884 53.319 80.0039 53.0458 80.1284C48.1131 82.4263 42.6583 95.3423 44.6283 108.568C50.7601 108.474 55.711 106.37 58.8831 103.135C64.259 97.6463 64.092 89.7419 58.4429 82.5113C56.737 80.3136 55.3619 79.7884 54.3905 79.7884ZM163.056 51.5005C159.495 52.3262 156.432 53.8105 154.11 55.219C144.967 60.7619 140.772 68.9456 141.622 71.3801C141.919 72.2179 143.92 72.2786 145.55 72.0722C153.819 71.0006 160.336 64.1738 162.567 54.2628C162.761 53.3734 162.928 52.4506 163.056 51.5005ZM100.212 21.0482C92.8899 31.2627 91.6392 42.4942 97.3612 47.3813C99.1005 48.8627 101.702 50.3864 104.206 49.1146C107.175 47.615 108.993 42.9191 108.611 37.6981C108.413 34.9054 107.175 27.869 100.212 21.0482Z" fill="black"/>
</svg>
