<svg width="480" height="350" viewBox="0 0 480 350" fill="none" xmlns="http://www.w3.org/2000/svg">
<rect width="480" height="350" rx="20" fill="url(#paint0_linear_1310_63)"/>
<path d="M199.65 180.885V189.956C193.605 193.248 184.991 196.129 177.085 196.129C170.646 196.129 165.194 194.829 160.714 192.261C156.234 189.676 152.693 186.12 150.074 181.576C147.455 177.049 146.154 172.144 146.154 166.859C146.154 158.48 149.135 151.434 155.131 145.721C161.109 140.009 168.488 137.145 177.25 137.145C183.295 137.145 190.015 138.725 197.41 141.886V150.742C190.673 146.89 184.085 144.981 177.662 144.981C171.238 144.981 165.589 147.071 161.225 151.22C156.86 155.385 154.686 160.603 154.686 166.859C154.686 173.115 156.827 178.366 161.126 182.433C165.408 186.499 170.893 188.54 177.58 188.54C184.266 188.54 192.996 185.165 199.65 180.885Z" fill="#1D1D1B"/>
<path d="M228.011 165.954H236.427L209.548 223.194H201.181L214.061 195.718L199.402 165.938H207.95L218.195 187.355L228.011 165.938V165.954Z" fill="#1D1D1B"/>
<path d="M237.91 138.543H245.421V196.128H237.91V138.543ZM262.599 158.199H271.509L255.319 176.752L274.804 196.128H264.74L245.734 176.785L262.599 158.216V158.199Z" fill="#1D1D1B"/>
<path d="M302.342 177.246H275.66C275.858 180.868 277.06 183.765 279.316 185.905C281.556 188.045 284.455 189.115 287.996 189.115C292.937 189.115 297.516 187.568 301.683 184.506V191.848C299.377 193.379 297.088 194.482 294.815 195.141C292.542 195.799 289.89 196.128 286.843 196.128C282.66 196.128 279.283 195.256 276.698 193.527C274.112 191.799 272.053 189.461 270.488 186.547C268.94 183.617 268.166 180.242 268.166 176.39C268.166 170.628 269.797 165.936 273.074 162.315C276.352 158.693 280.601 156.898 285.822 156.898C291.043 156.898 294.864 158.66 297.862 162.166C300.859 165.689 302.358 170.398 302.358 176.308V177.262L302.342 177.246ZM275.825 172.752H294.914C294.716 169.756 293.827 167.451 292.229 165.821C290.631 164.208 288.49 163.385 285.789 163.385C283.088 163.385 280.898 164.191 279.168 165.821C277.455 167.451 276.335 169.756 275.808 172.752H275.825Z" fill="#1D1D1B"/>
<path d="M332.844 195.536C331.807 195.931 330.736 196.129 329.616 196.129C326.405 196.129 324.511 194.861 323.934 192.342C320.739 194.812 317.346 196.046 313.755 196.046C311.12 196.046 308.913 195.174 307.151 193.429C305.389 191.684 304.516 189.494 304.516 186.86C304.516 184.473 305.372 182.333 307.085 180.456C308.798 178.58 311.235 177.082 314.398 175.979L324 172.686V170.661C324 166.101 321.727 163.813 317.148 163.813C313.047 163.813 309.061 165.92 305.191 170.167V161.969C308.106 158.528 312.29 156.816 317.774 156.816C321.875 156.816 325.153 157.886 327.623 160.027C328.447 160.718 329.188 161.623 329.847 162.759C330.506 163.895 330.934 165.031 331.099 166.183C331.28 167.319 331.362 169.492 331.362 172.67V188.786C331.362 190.07 331.807 190.729 332.68 190.729M323.983 187.963V176.703L318.96 178.646C316.407 179.666 314.595 180.687 313.541 181.708C312.487 182.745 311.96 184.029 311.96 185.56C311.96 187.091 312.471 188.408 313.459 189.395C314.464 190.383 315.765 190.877 317.362 190.877C319.751 190.877 321.974 189.906 324 187.947L323.983 187.963Z" fill="#1D1D1B"/>
<path d="M241.286 133.916C243.251 133.916 244.844 132.324 244.844 130.361C244.844 128.397 243.251 126.805 241.286 126.805C239.321 126.805 237.729 128.397 237.729 130.361C237.729 132.324 239.321 133.916 241.286 133.916Z" fill="#A734DD"/>
<path d="M203.308 163.319C205.272 163.319 206.865 161.727 206.865 159.763C206.865 157.799 205.272 156.207 203.308 156.207C201.343 156.207 199.75 157.799 199.75 159.763C199.75 161.727 201.343 163.319 203.308 163.319Z" fill="#A734DD"/>
<path d="M267.31 156.455C269.274 156.455 270.867 154.863 270.867 152.9C270.867 150.936 269.274 149.344 267.31 149.344C265.345 149.344 263.752 150.936 263.752 152.9C263.752 154.863 265.345 156.455 267.31 156.455Z" fill="#A734DD"/>
<path d="M208.182 155.699L235.358 133.887" stroke="#A734DD" stroke-miterlimit="10"/>
<path d="M246.326 133.488L263.669 147.646" stroke="#A734DD" stroke-miterlimit="10"/>
<path d="M345 318H480V330C480 341.046 471.046 350 460 350H345V318Z" fill="#FAEFFF"/>
<path d="M345 296C345 290.477 349.477 286 355 286H480V318H345V302V296Z" fill="#FAEFFF"/>
<path d="M380 251H480V283H380V251Z" fill="#FAEFFF"/>
<path d="M380 229C380 223.477 384.477 219 390 219H480V251H380V235V229Z" fill="#FAEFFF"/>
<path d="M425 184H480V216H425V184Z" fill="#FAEFFF"/>
<path d="M425 162C425 156.477 429.477 152 435 152H480V184H425V168V162Z" fill="#FAEFFF"/>
<defs>
<linearGradient id="paint0_linear_1310_63" x1="1.55394e-06" y1="49" x2="272" y2="425.5" gradientUnits="userSpaceOnUse">
<stop stop-color="#F7E6FF" stop-opacity="0.62"/>
<stop offset="0.635417" stop-color="white"/>
</linearGradient>
</defs>
</svg>
