<svg width="560" height="430" viewBox="0 0 560 430" fill="none" xmlns="http://www.w3.org/2000/svg">
<g filter="url(#filter0_d_1310_63)">
<rect x="40" y="24" width="480" height="350" rx="20" fill="url(#paint0_linear_1310_63)" shape-rendering="crispEdges"/>
</g>
<path d="M239.65 204.885V213.956C233.605 217.248 224.991 220.129 217.085 220.129C210.646 220.129 205.194 218.829 200.714 216.261C196.234 213.676 192.693 210.12 190.074 205.576C187.455 201.049 186.154 196.144 186.154 190.859C186.154 182.48 189.135 175.434 195.131 169.721C201.109 164.009 208.488 161.145 217.25 161.145C223.295 161.145 230.015 162.725 237.41 165.886V174.742C230.673 170.89 224.085 168.981 217.662 168.981C211.238 168.981 205.589 171.071 201.225 175.22C196.86 179.385 194.686 184.603 194.686 190.859C194.686 197.115 196.827 202.366 201.126 206.433C205.408 210.499 210.893 212.54 217.58 212.54C224.266 212.54 232.996 209.165 239.65 204.885Z" fill="#1D1D1B"/>
<path d="M268.011 189.954H276.427L249.548 247.194H241.181L254.061 219.718L239.402 189.938H247.95L258.195 211.355L268.011 189.938V189.954Z" fill="#1D1D1B"/>
<path d="M277.91 162.543H285.421V220.128H277.91V162.543ZM302.599 182.199H311.509L295.319 200.752L314.804 220.128H304.74L285.734 200.785L302.599 182.216V182.199Z" fill="#1D1D1B"/>
<path d="M342.342 201.246H315.66C315.858 204.868 317.06 207.765 319.316 209.905C321.556 212.045 324.455 213.115 327.996 213.115C332.937 213.115 337.516 211.568 341.683 208.506V215.848C339.377 217.379 337.088 218.482 334.815 219.141C332.542 219.799 329.89 220.128 326.843 220.128C322.66 220.128 319.283 219.256 316.698 217.527C314.112 215.799 312.053 213.461 310.488 210.547C308.94 207.617 308.166 204.242 308.166 200.39C308.166 194.628 309.797 189.936 313.074 186.315C316.352 182.693 320.601 180.898 325.822 180.898C331.043 180.898 334.864 182.66 337.862 186.166C340.859 189.689 342.358 194.398 342.358 200.308V201.262L342.342 201.246ZM315.825 196.752H334.914C334.716 193.756 333.827 191.451 332.229 189.821C330.631 188.208 328.49 187.385 325.789 187.385C323.088 187.385 320.898 188.191 319.168 189.821C317.455 191.451 316.335 193.756 315.808 196.752H315.825Z" fill="#1D1D1B"/>
<path d="M372.844 219.536C371.807 219.931 370.736 220.129 369.616 220.129C366.405 220.129 364.511 218.861 363.934 216.342C360.739 218.812 357.346 220.046 353.755 220.046C351.12 220.046 348.913 219.174 347.151 217.429C345.389 215.684 344.516 213.494 344.516 210.86C344.516 208.473 345.372 206.333 347.085 204.456C348.798 202.58 351.235 201.082 354.398 199.979L364 196.686V194.661C364 190.101 361.727 187.813 357.148 187.813C353.047 187.813 349.061 189.92 345.191 194.167V185.969C348.106 182.528 352.29 180.816 357.774 180.816C361.875 180.816 365.153 181.886 367.623 184.027C368.447 184.718 369.188 185.623 369.847 186.759C370.506 187.895 370.934 189.031 371.099 190.183C371.28 191.319 371.362 193.492 371.362 196.67V212.786C371.362 214.07 371.807 214.729 372.68 214.729M363.983 211.963V200.703L358.96 202.646C356.407 203.666 354.595 204.687 353.541 205.708C352.487 206.745 351.96 208.029 351.96 209.56C351.96 211.091 352.471 212.408 353.459 213.395C354.464 214.383 355.765 214.877 357.362 214.877C359.751 214.877 361.974 213.906 364 211.947L363.983 211.963Z" fill="#1D1D1B"/>
<path d="M281.286 157.916C283.251 157.916 284.844 156.324 284.844 154.361C284.844 152.397 283.251 150.805 281.286 150.805C279.321 150.805 277.729 152.397 277.729 154.361C277.729 156.324 279.321 157.916 281.286 157.916Z" fill="#A734DD"/>
<path d="M243.308 187.319C245.272 187.319 246.865 185.727 246.865 183.763C246.865 181.799 245.272 180.207 243.308 180.207C241.343 180.207 239.75 181.799 239.75 183.763C239.75 185.727 241.343 187.319 243.308 187.319Z" fill="#A734DD"/>
<path d="M307.31 180.455C309.274 180.455 310.867 178.863 310.867 176.9C310.867 174.936 309.274 173.344 307.31 173.344C305.345 173.344 303.752 174.936 303.752 176.9C303.752 178.863 305.345 180.455 307.31 180.455Z" fill="#A734DD"/>
<path d="M248.182 179.699L275.358 157.887" stroke="#A734DD" stroke-miterlimit="10"/>
<path d="M286.326 157.488L303.669 171.646" stroke="#A734DD" stroke-miterlimit="10"/>
<path d="M385 342H520V354C520 365.046 511.046 374 500 374H385V342Z" fill="#FAEFFF"/>
<path d="M385 320C385 314.477 389.477 310 395 310H520V342H385V326V320Z" fill="#FAEFFF"/>
<path d="M420 275H520V307H420V275Z" fill="#FAEFFF"/>
<path d="M420 253C420 247.477 424.477 243 430 243H520V275H420V259V253Z" fill="#FAEFFF"/>
<path d="M465 208H520V240H465V208Z" fill="#FAEFFF"/>
<path d="M465 186C465 180.477 469.477 176 475 176H520V208H465V192V186Z" fill="#FAEFFF"/>
<defs>
<filter id="filter0_d_1310_63" x="0" y="0" width="560" height="430" filterUnits="userSpaceOnUse" color-interpolation-filters="sRGB">
<feFlood flood-opacity="0" result="BackgroundImageFix"/>
<feColorMatrix in="SourceAlpha" type="matrix" values="0 0 0 0 0 0 0 0 0 0 0 0 0 0 0 0 0 0 127 0" result="hardAlpha"/>
<feOffset dy="16"/>
<feGaussianBlur stdDeviation="20"/>
<feComposite in2="hardAlpha" operator="out"/>
<feColorMatrix type="matrix" values="0 0 0 0 0.760486 0 0 0 0 0.772367 0 0 0 0 0.783333 0 0 0 0.2 0"/>
<feBlend mode="normal" in2="BackgroundImageFix" result="effect1_dropShadow_1310_63"/>
<feBlend mode="normal" in="SourceGraphic" in2="effect1_dropShadow_1310_63" result="shape"/>
</filter>
<linearGradient id="paint0_linear_1310_63" x1="40" y1="73" x2="312" y2="449.5" gradientUnits="userSpaceOnUse">
<stop stop-color="#F7E6FF" stop-opacity="0.62"/>
<stop offset="0.635417" stop-color="white"/>
</linearGradient>
</defs>
</svg>
