<svg width="59" height="67" viewBox="0 0 59 67" fill="none" xmlns="http://www.w3.org/2000/svg">
<path d="M18.3822 65.1548C23.9284 67.3927 30.2656 67.337 35.9644 65.5226C45.9749 62.3355 56.8787 52.3332 58.5523 42.2661C59.5819 36.0727 57.4156 29.8355 55.1542 23.9784C54.7581 26.129 52.962 27.8349 50.9134 28.6C48.8648 29.3651 46.599 29.3169 44.4357 28.9969C42.6211 28.7285 40.6735 28.1715 39.6225 26.668C38.5147 25.0833 38.7408 22.9677 38.8656 21.0382C39.3284 13.8837 37.7024 6.60634 34.2383 0.329224C34.5498 9.7315 29.2395 19.1055 21.0148 23.6721C20.6084 21.5772 18.7398 19.8527 16.6191 19.6153C19.1826 23.8295 18.272 29.8254 14.5729 33.0885C10.8738 36.3515 4.81108 36.5069 0.949707 33.4376C1.31829 37.1869 2.43828 40.8608 4.22394 44.1781C8.96117 52.9786 9.11382 61.4148 18.3822 65.1548Z" fill="#FCA929"/>
</svg>
