<svg width="1114" height="1026" viewBox="0 0 1114 1026" fill="none" xmlns="http://www.w3.org/2000/svg">
<path fill-rule="evenodd" clip-rule="evenodd" d="M383.452 843.854C388.219 833.579 398.845 826.585 409.729 826.558L710.056 825.819C721.124 825.792 729.848 832.973 731.5 843.469L756.887 1004.79C758.539 1015.29 767.263 1022.47 778.331 1022.44L932.375 1022.06C949.456 1022.02 963.87 1005.41 960.726 989.39L782.664 81.981C780.686 71.9027 772.111 65.1282 761.365 65.1546L580.887 65.5988C570.292 65.6249 559.906 72.2598 554.965 82.1579L105.118 983.452C97.2864 999.144 106.225 1015.69 122.903 1016.37L281.068 1022.84C292.274 1023.3 303.485 1016.22 308.428 1005.57L383.452 843.854ZM602.92 361.865C613.554 338.511 646.95 338.577 650.713 361.96L693.689 629.036C696.243 644.905 681.954 660.921 665.205 660.962L500.445 661.368C483.602 661.409 473.88 645.286 481.137 629.347L602.92 361.865Z" fill="black"/>
<path d="M472.486 21.9315L25.953 946.012C22.0263 954.138 24.2153 963.051 31.1641 967.23L107.822 1013.33C116.874 1018.77 129.978 1014.02 135.093 1003.43L581.626 79.3525C585.553 71.2265 583.364 62.3137 576.415 58.1347L499.757 12.0337C490.705 6.5899 477.601 11.3459 472.486 21.9315Z" fill="black"/>
<path d="M661.894 2.30755L580.661 2.50748C547.354 2.58945 529.531 46.4307 556.269 62.5101C560.725 65.1901 565.981 66.5906 571.533 66.5769L713.147 66.2284C730.94 66.1846 740.462 42.7631 726.178 34.1728L682.178 7.7118C676.256 4.15046 669.271 2.28939 661.894 2.30755Z" fill="black"/>
<path d="M360.745 598.149L532.446 221.029L638.51 284.815L466.809 661.935L360.745 598.149Z" fill="black"/>
<path d="M532.375 221.21L592.968 597.758L699.032 661.544L638.44 284.996L532.375 221.21Z" fill="black"/>
<path d="M593.324 597.529L361.031 598.101L467.095 661.887L699.388 661.315L593.324 597.529Z" fill="black"/>
<path d="M285.683 762.749L622.943 761.919L729.007 825.705L391.747 826.535L285.683 762.749Z" fill="black"/>
<path d="M859.758 949.93L686.802 68.5438C682.254 45.3692 710.323 24.721 730.158 36.6495L771.618 61.5834C776.993 64.8157 780.651 70.0829 781.884 76.3626L954.839 957.749C959.387 980.924 931.319 1001.57 911.484 989.643L870.023 964.709C864.649 961.477 860.99 956.21 859.758 949.93Z" fill="black"/>
<path d="M636.236 761.882L667.192 958.598L773.256 1022.38L742.3 825.668L636.236 761.882Z" fill="black"/>
<mask id="path-10-inside-1_1803_8" fill="white">
<path fill-rule="evenodd" clip-rule="evenodd" d="M272.741 791.189C280.177 775.161 296.754 764.249 313.732 764.208L593.378 763.519C610.644 763.477 624.253 774.679 626.83 791.054L649.098 932.557C651.675 948.932 665.284 960.134 682.55 960.092L806.688 959.786C833.334 959.72 855.819 933.807 850.915 908.815L678.288 29.1033C675.203 13.3812 661.826 2.81294 645.063 2.85419L484.971 3.2482C468.241 3.28937 451.87 13.8897 444.281 29.5949L18.4759 910.779C6.3713 935.829 21.4793 961.719 48.1639 961.653L165.318 961.365C182.296 961.323 198.873 950.412 206.309 934.384L272.741 791.189ZM476.922 342.959C493.51 306.526 545.608 306.628 551.478 343.106L584.59 548.878C588.574 573.634 566.283 598.619 540.154 598.683L413.213 598.996C386.939 599.06 371.772 573.908 383.093 549.044L476.922 342.959Z"/>
</mask>
<path fill-rule="evenodd" clip-rule="evenodd" d="M272.741 791.189C280.177 775.161 296.754 764.249 313.732 764.208L593.378 763.519C610.644 763.477 624.253 774.679 626.83 791.054L649.098 932.557C651.675 948.932 665.284 960.134 682.55 960.092L806.688 959.786C833.334 959.72 855.819 933.807 850.915 908.815L678.288 29.1033C675.203 13.3812 661.826 2.81294 645.063 2.85419L484.971 3.2482C468.241 3.28937 451.87 13.8897 444.281 29.5949L18.4759 910.779C6.3713 935.829 21.4793 961.719 48.1639 961.653L165.318 961.365C182.296 961.323 198.873 950.412 206.309 934.384L272.741 791.189ZM476.922 342.959C493.51 306.526 545.608 306.628 551.478 343.106L584.59 548.878C588.574 573.634 566.283 598.619 540.154 598.683L413.213 598.996C386.939 599.06 371.772 573.908 383.093 549.044L476.922 342.959Z" fill="#5447F6"/>
<path d="M383.093 549.044L378.526 547.59L383.093 549.044ZM551.478 343.106L546.487 344.542L551.478 343.106ZM476.922 342.959L472.355 341.505L476.922 342.959ZM18.4759 910.779L13.9645 909.207L18.4759 910.779ZM444.281 29.5949L439.769 28.0226L444.281 29.5949ZM678.288 29.1033L683.253 27.5186L678.288 29.1033ZM850.915 908.815L845.95 910.4L850.915 908.815ZM649.098 932.557L644.104 933.977L649.098 932.557ZM313.732 764.208L314.437 759.258L313.732 764.208ZM272.741 791.189L268.191 789.698L272.741 791.189ZM626.83 791.054L631.824 789.634L626.83 791.054ZM594.083 758.569L314.437 759.258L313.027 769.158L592.673 768.469L594.083 758.569ZM654.092 931.137L631.824 789.634L621.836 792.474L644.104 933.977L654.092 931.137ZM807.393 954.836L683.255 955.142L681.845 965.042L805.982 964.736L807.393 954.836ZM673.323 30.6881L845.95 910.4L855.88 907.23L683.253 27.5186L673.323 30.6881ZM484.266 8.1982L644.357 7.8042L645.768 -2.09581L485.677 -1.70181L484.266 8.1982ZM22.9873 912.352L448.792 31.1671L439.769 28.0226L13.9645 909.207L22.9873 912.352ZM166.023 956.415L48.8692 956.703L47.4586 966.603L164.613 966.315L166.023 956.415ZM268.191 789.698L201.759 932.893L210.859 935.875L277.291 792.679L268.191 789.698ZM589.582 547.443L556.47 341.671L546.487 344.542L579.599 550.314L589.582 547.443ZM412.508 603.946L539.449 603.633L540.86 593.733L413.918 594.046L412.508 603.946ZM472.355 341.505L378.526 547.59L387.66 550.498L481.489 344.413L472.355 341.505ZM413.918 594.046C391.013 594.102 377.79 572.174 387.66 550.498L378.526 547.59C365.754 575.641 382.865 604.019 412.508 603.946L413.918 594.046ZM556.47 341.671C549.848 300.517 491.07 300.4 472.355 341.505L481.489 344.413C495.95 312.651 541.369 312.74 546.487 344.542L556.47 341.671ZM579.599 550.314C583.072 571.896 563.638 593.677 540.86 593.733L539.449 603.633C568.927 603.561 594.076 575.373 589.582 547.443L579.599 550.314ZM164.613 966.315C183.768 966.267 202.47 953.957 210.859 935.875L201.759 932.893C195.276 946.866 180.825 956.378 166.023 956.415L164.613 966.315ZM13.9645 909.207C0.307986 937.469 17.3529 966.677 47.4586 966.603L48.8692 956.703C25.6057 956.76 12.4346 934.19 22.9873 912.352L13.9645 909.207ZM485.677 -1.70181C466.802 -1.65536 448.331 10.304 439.769 28.0226L448.792 31.1671C455.408 17.4754 469.681 8.2341 484.266 8.1982L485.677 -1.70181ZM683.253 27.5186C679.772 9.78082 664.68 -2.14236 645.768 -2.09581L644.357 7.8042C658.971 7.76824 670.633 16.9816 673.323 30.6881L683.253 27.5186ZM805.982 964.736C836.045 964.662 861.413 935.426 855.88 907.23L845.95 910.4C850.226 932.188 830.623 954.779 807.393 954.836L805.982 964.736ZM644.104 933.977C647.011 952.451 662.365 965.09 681.845 965.042L683.255 955.142C668.203 955.179 656.338 945.413 654.092 931.137L644.104 933.977ZM314.437 759.258C295.282 759.305 276.58 771.615 268.191 789.698L277.291 792.679C283.774 778.706 298.225 769.194 313.027 769.158L314.437 759.258ZM592.673 768.469C607.725 768.432 619.59 778.198 621.836 792.474L631.824 789.634C628.917 771.16 613.563 758.522 594.083 758.569L592.673 768.469Z" fill="black" mask="url(#path-10-inside-1_1803_8)"/>
</svg>
