<svg width="30" height="28" viewBox="0 0 30 28" fill="none" xmlns="http://www.w3.org/2000/svg">
<path d="M1.86666 6.125C1.86666 6.35706 1.965 6.57962 2.14003 6.74372C2.31507 6.90781 2.55246 7 2.8 7H27.0667C27.3142 7 27.5516 6.90781 27.7266 6.74372C27.9017 6.57962 28 6.35706 28 6.125C28 5.89294 27.9017 5.67038 27.7266 5.50628C27.5516 5.34219 27.3142 5.25 27.0667 5.25H2.8C2.55246 5.25 2.31507 5.34219 2.14003 5.50628C1.965 5.67038 1.86666 5.89294 1.86666 6.125ZM6.53333 13.125H27.0667C27.3142 13.125 27.5516 13.2172 27.7266 13.3813C27.9017 13.5454 28 13.7679 28 14C28 14.2321 27.9017 14.4546 27.7266 14.6187C27.5516 14.7828 27.3142 14.875 27.0667 14.875H6.53333C6.2858 14.875 6.0484 14.7828 5.87337 14.6187C5.69833 14.4546 5.6 14.2321 5.6 14C5.6 13.7679 5.69833 13.5454 5.87337 13.3813C6.0484 13.2172 6.2858 13.125 6.53333 13.125ZM14.9333 21H27.0667C27.3142 21 27.5516 21.0922 27.7266 21.2563C27.9017 21.4204 28 21.6429 28 21.875C28 22.1071 27.9017 22.3296 27.7266 22.4937C27.5516 22.6578 27.3142 22.75 27.0667 22.75H14.9333C14.6858 22.75 14.4484 22.6578 14.2734 22.4937C14.0983 22.3296 14 22.1071 14 21.875C14 21.6429 14.0983 21.4204 14.2734 21.2563C14.4484 21.0922 14.6858 21 14.9333 21Z" fill="#A8A8A8"/>
</svg>
