<svg width="34" height="34" viewBox="0 0 34 34" fill="none" xmlns="http://www.w3.org/2000/svg">
<path fill-rule="evenodd" clip-rule="evenodd" d="M1.41602 4.02181C1.41602 3.33123 1.69035 2.66893 2.17866 2.18062C2.66697 1.6923 3.32927 1.41797 4.01985 1.41797H29.976C30.3182 1.41741 30.6572 1.48436 30.9736 1.61498C31.2899 1.74561 31.5773 1.93734 31.8195 2.1792C32.0616 2.42106 32.2536 2.70831 32.3846 3.02449C32.5156 3.34067 32.5829 3.67957 32.5827 4.02181V29.978C32.5831 30.3203 32.5159 30.6593 32.3852 30.9756C32.2544 31.2919 32.0625 31.5794 31.8205 31.8215C31.5786 32.0636 31.2912 32.2556 30.975 32.3866C30.6587 32.5175 30.3197 32.5848 29.9774 32.5846H4.01985C3.67779 32.5846 3.33908 32.5172 3.02308 32.3863C2.70707 32.2554 2.41997 32.0634 2.17816 31.8215C1.93635 31.5796 1.74459 31.2923 1.61381 30.9763C1.48304 30.6602 1.41583 30.3214 1.41602 29.9794V4.02181ZM13.7523 13.301H17.9726V15.4203C18.5818 14.202 20.1401 13.1055 22.4818 13.1055C26.9713 13.1055 28.0352 15.5322 28.0352 19.9848V28.2326H23.4919V20.9991C23.4919 18.4633 22.8828 17.0325 21.3358 17.0325C19.1895 17.0325 18.297 18.5752 18.297 20.9991V28.2326H13.7523V13.301ZM5.96068 28.0386H10.5054V13.1055H5.96068V28.0371V28.0386ZM11.1556 8.23497C11.1642 8.62409 11.0949 9.011 10.9519 9.373C10.809 9.735 10.5951 10.0648 10.3229 10.343C10.0508 10.6212 9.72576 10.8423 9.36699 10.9932C9.00823 11.1442 8.62294 11.2219 8.23373 11.2219C7.84451 11.2219 7.45922 11.1442 7.10046 10.9932C6.74169 10.8423 6.41669 10.6212 6.14452 10.343C5.87235 10.0648 5.6585 9.735 5.51551 9.373C5.37252 9.011 5.30328 8.62409 5.31185 8.23497C5.32867 7.47118 5.64389 6.74434 6.19002 6.21011C6.73615 5.67588 7.46975 5.37673 8.23373 5.37673C8.9977 5.37673 9.7313 5.67588 10.2774 6.21011C10.8236 6.74434 11.1388 7.47118 11.1556 8.23497Z" fill="#CBCBCB"/>
</svg>
