<svg width="419" height="350" viewBox="0 0 419 350" fill="none" xmlns="http://www.w3.org/2000/svg">
<rect width="480" height="350" rx="20" fill="#CEE5FF"/>
<path fill-rule="evenodd" clip-rule="evenodd" d="M290.184 170.575C288.617 169.421 287.197 166.919 286.196 169.155C287.317 171.474 287.551 173.283 290.184 170.575ZM13.4317 172.734C14.4795 170.172 17.7525 168.559 15.1572 166.869C13.0209 169.221 9.58404 169.437 13.4317 172.734ZM211.979 184.16C207.276 186.346 209.171 187.665 212.105 189.977C216.183 189.166 214.507 186.722 211.979 184.16ZM234.02 10.8821C226.843 12.6211 241.482 18.2736 244.416 14.7218C242.207 11.3194 238.048 11.9426 234.02 10.8821ZM144.317 107.944C126.979 118.904 156.677 72.7198 105.953 92.0975C114.078 101.444 137.056 88.1149 125.88 108.238C121.545 118.73 128.677 126.82 139.262 122.963C141.985 132.004 148.861 138.372 160.206 136.046C171.841 132.881 157.852 149.784 168.595 158.832C181.48 167.892 176.111 152.041 176.665 146.033C180.879 132.317 176.796 118.159 157.87 123.596C149.958 123.013 161.356 112.529 154.923 108.336C152.937 103.641 148.502 108.129 144.317 107.944ZM91.3803 203.289C85.5669 234.386 154.665 246.208 142.267 204.725C134.907 189.215 99.201 194.952 121.286 210.647C123.734 212.02 126.709 212.406 125.332 208.575C128.802 195.272 146.085 217.628 120.671 222.178C76.8913 222.721 108.846 170.391 139.972 175.617C204.609 180.334 153.978 283.931 101.917 250.691C65.9474 235.105 63.7911 187.925 90.0145 161.867C54.8196 176.223 63.8653 220.605 82.1945 243.456C148.789 305.263 212.588 206.795 157.614 172.649C131.622 159.999 91.3069 175.622 91.3803 203.289ZM351.599 164.989C353.723 162.904 356.008 162.167 353.822 159.115C356.504 134.273 375.633 176.071 384.342 149.885C387.631 142.128 387.519 141.707 394.96 146.809C398.547 139.28 394.61 126.29 385.077 123.724C376.144 126.308 380.015 153.796 367.055 142.891C341.177 120.372 350.659 163.507 339.482 154.197C315.561 134.14 311.791 148.785 313.302 168.934C310.488 171.474 313.773 172.765 314.944 174.254C316.978 176.354 320.472 175.416 320.648 172.501C317.395 129.159 337.817 174.441 351.599 164.989ZM474.718 181.872C473.765 185.079 480.971 184.459 476.01 186.568C454.721 195.488 456.194 220.105 450.166 237.733C445.577 242.869 450.844 246.311 446.738 252.193C438.084 254.177 433.158 252.364 424.016 256.532C416.471 254.963 415.552 259.993 408.253 259.174C404.707 254.983 405 257 390.914 260.332C376.828 263.664 367.69 264.214 354.331 266.418C349.229 244.499 332.037 224.3 305.917 222.751C266.633 222.011 267.895 263.173 260.189 286.496C250.487 287.339 241.732 290.838 232.4 292.47C223.304 291.356 215.99 295.457 209.539 300.876C166.133 267.703 194.561 302.997 169.803 309.216C155.958 301.684 146.104 302.428 150.921 320.658C160.797 348.408 117.339 312.03 119.24 337.1C119.017 342.597 124.417 352.024 114.581 349.613C115.671 345.567 108.2 346.294 105.361 343.743L97.1982 337.702C92.1404 339.557 87.4081 335.98 83.7087 334.575C78.6094 327.423 69.2961 324.329 62.1168 319.094C61.7623 319.191 61.5495 319.079 61.4717 318.759C58.8601 310.635 50.1014 307.201 46.2441 299.805C46.6112 296.803 47.0383 293.761 41.7773 294.51C40.8904 289.008 35.8415 284.668 33.8002 279.446C27.0962 263.411 20.0371 245.946 14.8739 230.476C15.1913 222.804 4.85175 214.915 9.81095 208.991C17.5285 205.922 -0.0547941 200.944 4.09171 194.34C9.66413 189.689 1.48383 190.467 2.41887 186.057C5.97513 182.109 0.939566 180.823 1.00055 176.904C4.33047 175.858 4.25336 174.599 1.29845 173.161C2.86452 163.956 11.8849 155.868 18.0891 149.168C26.7418 151.175 23.1484 145.931 27.2556 141.42C34.9725 133.591 37.6538 142.498 37.4143 134.681C50.84 133.8 39.5565 135.554 47.9118 125.665C51.554 125.649 55.3187 126.291 56.0683 121.451C62.8627 117.515 69.781 113.175 75.2496 107.434C77.7151 105.294 91.2165 103.656 86.2135 100.457C84.3657 100.149 84.2396 99.8435 85.0924 97.9285C88.4855 97.781 90.3571 96.0723 90.9236 93.8925C92.2212 93.7753 95.2806 93.0257 95.7471 90.1503C126.121 66.5976 155.609 43.2511 186.391 20.3723C190.769 12.0223 201.157 13.6513 207.395 7.61281C209.19 5.57735 210.913 4.2138 213.893 4.51023C196.03 23.6541 180.914 49.7145 194.268 74.8732C205.778 106.967 255.356 117.344 283.597 97.1677C308.438 83.5479 306.956 55.7577 292.371 36.1777C291.762 33.3182 289.93 26.4425 286.252 31.2874C273.351 21.7853 245.114 15.7322 232.243 23.3089C222.812 29.5378 213.162 38.3904 214.266 50.7303C214.34 55.454 210.17 60.8615 216.418 63.6485C225.408 87.1176 271.729 85.4516 271.253 58.9432C273.51 36.9056 228.248 46.9953 247.796 61.4708C249.867 55.84 252.16 52.2164 259.203 54.3856C271.308 58.1416 253.106 67.6997 249.573 72.2159C232.969 75.7934 210.837 61.1249 223.876 47.0111C257.262 -11.3156 342.094 73.8331 261.947 96.953C223.027 113.731 172.377 63.2032 206.276 38.5893C206.375 33.7596 199.606 39.4839 197.325 40.2987C198.008 37.2462 196.894 32.7425 199.586 30.5035C205.64 28.3943 203.864 22.2154 209.705 19.9138C221.501 3.63215 248.247 -10.1345 263.541 10.1133C293.785 20.4533 321.342 34.6409 347.364 53.4225C348.336 58.0572 352.126 58.4255 356.104 59.0618C376.473 71.7416 396.531 91.892 421.451 92.6245C429.878 93.7746 435.078 99.4732 441.388 92.3379C458.08 91.4506 450.402 96.3733 450.744 105.107C459.181 106.294 461.362 96.1368 467.069 92.7496C481.892 77.0068 481.559 100.837 480.627 112.487C471.876 115.419 478.986 126.32 475.721 132.016C473.614 137.174 475.905 139.978 479.578 142.942C476.704 154.27 485.003 187.167 466.209 169.655C448.757 154.118 442.743 131.548 450.537 110.849C448.676 102.055 440.252 116.057 441.402 120.462C436.248 143.356 451.211 171.121 474.718 181.872Z" fill="#B6D8FF"/>
<g filter="url(#filter0_d_1310_80)">
<circle cx="67.319" cy="62.3207" r="41.5" transform="rotate(-8.73159 67.319 62.3207)" fill="#DDFFD1"/>
<circle cx="67.319" cy="62.3207" r="40.25" transform="rotate(-8.73159 67.319 62.3207)" stroke="black" stroke-width="2.5"/>
</g>
<path fill-rule="evenodd" clip-rule="evenodd" d="M83.1094 55.6441C84.1192 54.655 82.015 52.2339 81.3176 51.5245C80.6576 50.5607 79.9976 49.5969 79.3375 48.633C79.2673 47.7702 78.3169 47.139 77.533 47.5251C76.7373 47.1214 75.5747 47.5518 75.334 48.4122C66.8791 46.1791 53.3872 49.7205 54.3132 60.4759C53.2458 63.7426 52.1959 67.0331 51.3139 70.3551C49.4424 70.7462 48.8796 73.1784 50.2306 74.4869C50.7495 76.8689 52.304 76.825 54.3239 76.4052C55.1747 76.4949 56.0404 76.4814 56.7506 77.0185C57.2898 77.423 57.6994 77.9781 58.0951 78.517C59.9212 81.0031 62.0729 83.0658 64.79 84.5623C69.0031 86.8088 74.4302 88.0528 78.9309 85.953C88.4506 80.4204 87.9991 64.2221 83.1094 55.6441Z" fill="#EDB98A"/>
<path fill-rule="evenodd" clip-rule="evenodd" d="M59.5883 43.4052C65.9708 40.8522 73.723 41.7722 79.0968 46.1471C79.4748 46.4544 79.5113 46.9244 79.2732 47.2692C79.4224 47.3565 79.5691 47.4473 79.7178 47.5378C79.8733 47.6333 79.8894 47.8707 79.7899 48.0074C79.6911 48.142 79.4524 48.2032 79.3201 48.0796L79.1245 47.8985C79.0271 47.808 78.9305 47.7171 78.8364 47.6231C78.747 47.6726 78.6599 47.7237 78.5727 47.7738C80.1194 48.4906 81.4797 49.5493 82.5106 50.9168C83.6261 52.3959 84.444 54.0319 85.0792 55.7674C86.2117 58.8634 86.808 62.1255 87.2211 65.3872L87.2431 65.5619C87.7337 69.4946 87.963 73.5338 86.8642 77.3881C85.9827 80.4772 84.036 83.4921 81.2784 85.2088C79.6903 86.1968 77.9105 86.7876 76.0442 86.9415C75.0602 87.0232 74.066 87.0187 73.0824 86.93L72.8461 86.9084C71.9496 86.8249 71.0158 86.7118 70.203 86.3311C69.3689 85.9397 69.7238 84.8534 70.5766 84.8479C71.6039 84.8422 72.6248 85.1141 73.6547 85.1784C74.6621 85.2421 75.6658 85.2023 76.6599 85.02C78.4188 84.6988 79.9445 83.9093 81.2535 82.6998C86.2579 78.0742 85.7726 70.3939 84.9779 64.2492C84.5893 61.247 84.0142 58.2336 82.877 55.4167C81.7841 52.7084 80.221 50.1162 78.2414 47.9635C77.9066 48.1507 77.5685 48.3159 77.1958 48.4089C76.5841 48.9173 75.7844 49.0511 75.0052 49.171L74.8966 49.1876C74.0855 49.3112 73.2671 49.3879 72.449 49.439C69.5542 49.6244 66.5169 49.4336 63.7088 50.2833L63.5942 50.3184C62.4394 50.6777 61.0319 51.2756 60.2947 52.259C59.4979 53.3204 60.3929 54.9599 61.2198 55.3973C61.7544 55.6806 62.0275 56.4613 61.4478 56.882C60.3034 57.714 57.2402 57.8201 56.9566 58.227C56.6158 58.7137 56.7435 59.356 56.8165 59.9085L56.8212 59.9452C57.0201 61.5191 57.299 63.0756 57.6718 64.6187C58.0316 66.1107 58.5545 67.5808 58.8521 69.0864C58.9508 69.5826 58.3706 69.8269 57.9983 69.6034C57.9252 69.5595 57.8505 69.5189 57.7767 69.4833C57.1119 69.1506 56.403 69.0758 55.6544 69.0744C55.6151 69.0742 55.5821 69.0597 55.5566 69.0376L55.5462 69.0277L55.4782 69.1035C55.6587 69.2687 55.8212 69.4621 55.9607 69.6857C55.989 69.7303 55.9534 69.798 55.8957 69.7742C54.7918 69.3283 53.6514 69.2422 52.5246 69.6643C51.5108 70.0435 50.6651 70.8531 50.5212 71.9633C50.3891 72.9848 50.7698 74.0807 51.5268 74.7881C52.6466 75.8368 54.1513 75.4954 55.5243 75.3407C55.7933 75.3106 56.1115 75.3944 56.2754 75.6305C56.4683 75.9092 56.4898 76.1161 56.3993 76.4372C56.3869 76.483 56.3679 76.5257 56.3444 76.5651C56.4746 76.6429 56.6 76.7306 56.7229 76.8209L57.1343 77.1249C57.4158 77.3335 57.6963 77.5444 57.969 77.7628C58.7702 78.4052 59.5378 79.1018 60.2701 79.8212L60.3379 79.8885C61.1989 80.7522 62.1528 82.0439 63.4333 82.1615C63.8725 82.2023 64.2975 82.3503 64.4935 82.7887C64.6895 83.227 64.4613 83.7163 64.0927 83.9688C63.4535 84.4069 62.517 84.1465 61.8831 83.8152C60.5159 83.0994 59.4867 81.7471 58.5328 80.564L58.2717 80.2408C57.7802 79.6302 57.2965 79.0104 56.8645 78.356C56.6182 77.9825 56.3585 77.6142 56.1243 77.2327C56.0562 77.1217 55.9878 77.0087 55.9299 76.891C55.8768 76.9114 55.8222 76.928 55.7698 76.9391C54.1394 77.2997 52.2031 77.3297 50.8211 76.2631C48.9157 74.7931 48.2503 71.7435 49.8623 69.8139C50.0321 69.6103 50.2302 69.4237 50.4495 69.2563C50.0298 68.7441 49.7091 68.1248 49.4523 67.5366C49.0773 66.6776 48.8045 65.7856 48.5969 64.8724C48.1749 63.0092 48.1009 61.0579 48.2727 59.1586C48.8961 52.2746 53.0932 46.0032 59.5883 43.4052ZM51.8877 72.7566C51.2716 70.9173 55.2684 71.7336 56.1135 71.7385L56.1381 71.7385C57.1043 71.7244 56.8318 73.4642 55.8248 73.1131L55.7941 73.1018C55.2461 72.8906 54.6603 72.7689 54.0945 72.6056L53.9736 72.57C53.5227 72.4331 51.9963 71.7418 51.9954 72.7401C51.9957 72.7952 51.9048 72.8081 51.8877 72.7566Z" fill="black"/>
<path fill-rule="evenodd" clip-rule="evenodd" d="M76.3148 77.2686C75.6008 77.0984 74.9312 76.7344 74.4034 76.219C74.2199 76.0398 74.1475 75.832 74.1494 75.6315C74.1516 75.406 74.2514 75.1865 74.4088 75.0255C74.5667 74.8639 74.7798 74.7635 75.0008 74.7641C75.1929 74.7646 75.3953 74.8383 75.5757 75.0281L75.6131 75.0658C75.9277 75.3775 76.3116 75.6139 76.7272 75.7404C77.1276 75.8624 77.5576 75.882 77.9817 75.7671C78.7896 75.5482 79.2881 75.0177 79.7978 74.3229C79.8608 74.2354 79.9235 74.1456 79.9863 74.0543C80.0226 73.9748 80.0813 73.9183 80.1505 73.8827C80.2275 73.8432 80.3195 73.8307 80.408 73.847C80.4933 73.8628 80.574 73.9051 80.6335 73.9688C80.6901 74.0293 80.7291 74.1089 80.7353 74.2063C80.7761 74.8388 80.5345 75.4461 80.137 75.9548C79.6956 76.5198 79.0631 76.9609 78.4372 77.1777C77.7476 77.4165 77.0104 77.4345 76.3148 77.2686ZM77.2579 67.2685C78.0831 67.6103 79.3971 68.5008 78.7593 69.7602C77.9571 70.9075 76.4048 69.9718 75.6469 69.5571C74.9563 69.2516 74.4086 70.3942 75.0641 70.7741C80.5205 73.6405 81.4963 66.7401 77.5571 66.6718C77.1233 66.6642 77.0384 67.1573 77.2579 67.2685ZM67.8296 64.4073C67.7544 63.3619 69.295 62.8852 69.6088 63.883C69.8898 64.7768 69.8536 65.6431 69.5669 66.5307C69.2928 67.3787 68.2437 67.1638 68.0586 66.4584C67.8103 65.5128 67.8763 65.0577 67.8296 64.4073ZM79.7612 62.1069C79.9369 61.7859 80.2241 61.5412 80.6214 61.5935C81.8627 61.7574 81.7709 63.4936 81.4794 64.3766C81.321 64.8562 80.6055 65.0815 80.2142 64.7408C79.5763 64.1851 79.122 62.9496 79.7116 62.2152C79.7252 62.1799 79.7409 62.1439 79.7612 62.1069ZM68.4975 59.6796L68.6801 59.618C69.2453 59.4287 69.9524 59.2216 70.4346 59.6241C70.6903 59.8375 70.8358 60.2849 70.5793 60.5662C70.1281 61.0611 69.534 60.9874 68.9223 61.1174C68.4181 61.2246 67.9422 61.3837 67.4737 61.5986C66.446 62.0701 65.6562 62.764 64.8325 63.5192C64.7245 63.6183 64.5779 63.4835 64.6181 63.3623C64.989 62.2456 65.8853 61.2374 66.8343 60.561C67.3408 60.2 67.9063 59.8782 68.4975 59.6796ZM77.9832 57.7481L78.1313 57.7553C79.7445 57.8412 81.8754 58.1803 82.8508 59.5981C82.9123 59.8104 82.8896 59.8614 82.87 59.8954L82.8635 59.9067C82.8475 59.9357 82.837 59.9738 82.7475 60.0178C82.7204 60.0156 82.693 60.0131 82.6653 60.0102C82.3124 59.9736 82.0252 59.8926 81.7458 59.8058L81.4427 59.7106C81.0912 59.6009 80.7378 59.4974 80.3708 59.4374C79.5875 59.3092 78.794 59.2561 78.0009 59.2845C77.829 59.2907 77.6576 59.2588 77.5144 59.1811C77.3784 59.1073 77.2657 58.9935 77.1971 58.8298C77.1083 58.618 77.0985 58.4488 77.1865 58.2319C77.2527 58.069 77.3642 57.946 77.5015 57.8641C77.6414 57.7806 77.8091 57.7402 77.9832 57.7481Z" fill="black"/>
<path fill-rule="evenodd" clip-rule="evenodd" d="M79.7654 81.7496C76.8738 82.6376 74.7188 82.8768 73.3006 82.4674C71.1796 81.8552 69.1171 81.2644 67.1344 80.3265C65.1031 79.3656 63.3149 78.1287 61.91 76.4097C60.6033 74.8101 59.455 73.0762 58.3029 71.3576C58.2355 71.2571 57.5722 70.2578 57.3409 69.9241C56.9841 69.4063 56.2191 69.7035 56.3524 70.5719C56.4858 71.4402 57.4571 78.0223 59.3758 80.3755C61.1071 82.5011 63.684 83.7764 66.214 84.8463C69.013 86.0291 72.6713 87.2106 75.7912 87.192C78.6147 87.1748 81.5899 85.5481 83.2999 83.3575C85.0876 81.0666 85.2683 78.2995 85.9533 75.571C86.1062 74.9612 85.1991 74.7469 85.0351 75.3487C84.8292 76.1043 83.0726 78.2379 79.7654 81.7496Z" fill="black"/>
<rect x="371.341" y="65.4526" width="45.5" height="35.4836" rx="14.25" transform="rotate(7.65199 371.341 65.4526)" fill="black" stroke="black" stroke-width="1.5"/>
<rect x="373.29" y="50.9448" width="45.5" height="45.5" rx="14.25" transform="rotate(7.65199 373.29 50.9448)" fill="url(#paint0_linear_1310_80)" stroke="black" stroke-width="1.5"/>
<g clip-path="url(#clip0_1310_80)">
<path d="M394.47 66.4885C394.405 66.9784 394.157 67.4255 393.776 67.7403C392.852 67.4342 391.88 67.3035 390.908 67.355C390.724 67.0928 390.608 66.7898 390.568 66.4722C390.528 66.1547 390.566 65.8322 390.679 65.5328C390.792 65.2333 390.977 64.966 391.216 64.7539C391.456 64.5419 391.744 64.3915 392.055 64.3158C392.366 64.2402 392.69 64.2415 393.001 64.3198C393.311 64.398 393.598 64.5508 393.836 64.7648C394.073 64.9789 394.256 65.2478 394.366 65.5481C394.477 65.8485 394.512 66.1713 394.47 66.4885Z" fill="black"/>
<path d="M398.623 78.799L397.959 83.7404L382.651 81.6837C382.974 78.6877 383.184 77.012 383.678 74.0388C383.849 72.7709 384.332 71.5652 385.084 70.53C385.836 69.4948 386.833 68.6625 387.986 68.1078C389.138 67.553 390.411 67.2933 391.689 67.3518C392.967 67.4102 394.211 67.7852 395.308 68.4429C394.574 69.2613 394.068 70.2574 393.838 71.3322C393.608 72.407 393.664 73.5232 393.999 74.57C394.334 75.6167 394.937 76.5576 395.748 77.2993C396.559 78.041 397.55 78.5576 398.623 78.7979L398.623 78.799Z" fill="black"/>
<path d="M398.07 83.7552L382.54 81.6686C381.509 81.5302 380.562 82.2533 380.423 83.2836C380.285 84.314 381.008 85.2615 382.038 85.4L397.569 87.4866C398.6 87.625 399.547 86.902 399.685 85.8716C399.824 84.8412 399.101 83.8937 398.07 83.7552Z" fill="black"/>
<path d="M389.348 89.8557L389.344 89.8552C388.439 89.7334 387.62 89.2573 387.066 88.5314C386.512 87.8055 386.269 86.8893 386.391 85.9844L393.218 86.9017C393.096 87.8065 392.62 88.626 391.895 89.18C391.169 89.734 390.253 89.977 389.348 89.8557Z" fill="black"/>
<path d="M399.161 78.8951C402.61 79.3585 405.781 76.9382 406.244 73.4893C406.708 70.0403 404.288 66.8688 400.839 66.4054C397.39 65.942 394.218 68.3623 393.755 71.8112C393.291 75.2602 395.712 78.4317 399.161 78.8951Z" fill="#F46969"/>
<path d="M384.195 85.688L382.038 85.3982C381.617 85.3409 381.227 85.1427 380.933 84.8359C380.638 84.5291 380.457 84.1317 380.417 83.7084C380.377 83.285 380.482 82.8607 380.714 82.5043C380.945 82.148 381.291 81.8806 381.694 81.7457C382.41 83.1311 383.246 84.4503 384.195 85.688Z" fill="black"/>
<path d="M393.734 68.0514C393.715 68.0488 393.695 68.0444 393.676 68.0383C392.79 67.745 391.857 67.6196 390.925 67.6687C390.872 67.6716 390.818 67.6608 390.77 67.6373C390.722 67.6138 390.68 67.5784 390.65 67.5344C390.395 67.171 390.252 66.7412 390.237 66.2976C390.223 65.8541 390.338 65.4159 390.569 65.0368C390.799 64.6577 391.136 64.3539 391.536 64.1628C391.937 63.9716 392.384 63.9013 392.824 63.9603C393.264 64.0194 393.677 64.2054 394.013 64.4955C394.349 64.7856 394.593 65.1673 394.715 65.5939C394.837 66.0204 394.833 66.4734 394.702 66.8975C394.571 67.3215 394.32 67.6982 393.978 67.9816C393.944 68.0094 393.905 68.03 393.863 68.042C393.821 68.054 393.777 68.0572 393.734 68.0514ZM392.742 64.5887C392.438 64.5477 392.129 64.5921 391.849 64.717C391.569 64.8419 391.329 65.0422 391.157 65.2957C390.984 65.5491 390.886 65.8456 390.872 66.1519C390.858 66.4582 390.93 66.7622 391.08 67.0299C391.967 67.004 392.852 67.123 393.701 67.3821C393.916 67.1633 394.065 66.8891 394.133 66.5901C394.201 66.2912 394.184 65.9792 394.084 65.6893C393.985 65.3993 393.807 65.1428 393.57 64.9484C393.333 64.754 393.046 64.6294 392.742 64.5887Z" fill="black"/>
<path d="M397.917 84.0517L382.609 81.995C382.526 81.9839 382.451 81.9402 382.4 81.8735C382.349 81.8069 382.327 81.7228 382.338 81.6397L382.886 77.5602C382.897 77.4771 382.941 77.4019 383.008 77.351C383.074 77.3002 383.158 77.2779 383.241 77.2891C383.324 77.3002 383.4 77.3439 383.451 77.4106C383.501 77.4772 383.524 77.5613 383.512 77.6444L383.007 81.4102L397.688 83.3827L398.272 79.0364C397.214 78.7498 396.243 78.2047 395.447 77.45C394.651 76.6954 394.056 75.7548 393.714 74.7129C393.371 73.671 393.293 72.5604 393.487 71.481C393.68 70.4015 394.139 69.387 394.821 68.5286C394.042 68.1124 393.195 67.8398 392.319 67.7237C388.271 67.1799 384.535 70.0308 383.992 74.0785L383.841 75.2013C383.83 75.2844 383.786 75.3596 383.719 75.4105C383.653 75.4613 383.569 75.4836 383.485 75.4725C383.402 75.4613 383.327 75.4176 383.276 75.351C383.225 75.2843 383.203 75.2002 383.214 75.1172L383.365 73.9948C383.955 69.6016 388.01 66.5076 392.403 67.0978C393.489 67.2415 394.533 67.607 395.471 68.1717C395.511 68.1955 395.546 68.2279 395.572 68.2666C395.598 68.3052 395.615 68.3491 395.622 68.3952C395.629 68.4412 395.626 68.4883 395.612 68.5329C395.599 68.5776 395.576 68.6188 395.545 68.6535C394.742 69.5465 394.228 70.6616 394.07 71.8523C393.66 74.9055 395.691 77.8207 398.694 78.4893C398.771 78.5066 398.839 78.5524 398.884 78.6175C398.929 78.6827 398.949 78.7624 398.938 78.841L398.274 83.7823C398.268 83.8234 398.254 83.863 398.233 83.8988C398.212 83.9346 398.184 83.9659 398.151 83.9909C398.118 84.0159 398.08 84.0341 398.04 84.0446C398 84.055 397.958 84.0574 397.917 84.0517Z" fill="black"/>
<path d="M383.085 78.7147C382.979 78.7004 382.895 78.5499 382.853 78.2963C382.811 78.0428 382.813 77.7069 382.859 77.3626L383.121 75.4154C383.167 75.0711 383.253 74.7465 383.361 74.5132C383.469 74.2798 383.59 74.1568 383.696 74.1711C383.802 74.1853 383.886 74.3358 383.928 74.5894C383.971 74.8429 383.969 75.1788 383.922 75.5231L383.661 77.4703C383.614 77.8146 383.528 78.1392 383.42 78.3725C383.312 78.6059 383.192 78.7289 383.085 78.7147Z" fill="black"/>
<path d="M397.528 87.8001L381.996 85.7134C381.707 85.679 381.427 85.5874 381.173 85.4439C380.919 85.3004 380.697 85.1078 380.518 84.8774C380.339 84.647 380.208 84.3833 380.132 84.1018C380.057 83.8203 380.038 83.5264 380.076 83.2375C380.115 82.9485 380.211 82.6701 380.359 82.4186C380.506 82.167 380.702 81.9473 380.935 81.7722C381.168 81.5972 381.434 81.4702 381.717 81.3988C381.999 81.3273 382.293 81.3128 382.582 81.3561L398.113 83.4428C398.684 83.5285 399.198 83.8352 399.545 84.2968C399.891 84.7583 400.042 85.3376 399.966 85.9096C399.889 86.4817 399.59 87.0005 399.134 87.3542C398.678 87.7079 398.101 87.868 397.528 87.8001ZM382.498 81.9825C382.292 81.951 382.082 81.9609 381.88 82.0114C381.678 82.062 381.488 82.1523 381.322 82.277C381.155 82.4017 381.015 82.5584 380.91 82.7379C380.804 82.9174 380.736 83.1161 380.708 83.3223C380.68 83.5286 380.694 83.7383 380.748 83.9393C380.803 84.1402 380.896 84.3283 381.024 84.4926C381.152 84.6569 381.311 84.794 381.492 84.8961C381.674 84.9981 381.874 85.063 382.08 85.087L397.612 87.1736C398.02 87.2208 398.43 87.1061 398.754 86.8541C399.078 86.6021 399.29 86.233 399.344 85.8262C399.399 85.4194 399.292 85.0074 399.046 84.6788C398.8 84.3502 398.435 84.1313 398.029 84.0692L382.498 81.9825Z" fill="black"/>
<path d="M389.306 90.1688L389.302 90.1682C388.314 90.0344 387.42 89.5143 386.815 88.722C386.211 87.9297 385.945 86.9299 386.077 85.9421C386.088 85.859 386.132 85.7838 386.199 85.733C386.265 85.6821 386.349 85.6598 386.432 85.671L393.26 86.5883C393.343 86.5994 393.418 86.6431 393.469 86.7098C393.52 86.7764 393.542 86.8605 393.531 86.9436C393.397 87.931 392.877 88.825 392.085 89.4296C391.293 90.0343 390.294 90.3001 389.306 90.1688ZM386.677 86.3416C386.653 87.1153 386.917 87.8705 387.417 88.4614C387.917 89.0524 388.618 89.4372 389.385 89.5416L389.39 89.5423C390.158 89.6445 390.936 89.4586 391.574 89.0206C392.213 88.5826 392.667 87.9235 392.848 87.1706L386.677 86.3416Z" fill="black"/>
<path d="M399.118 79.212C397.821 79.0378 396.605 78.4829 395.623 77.6175C394.642 76.7521 393.939 75.6151 393.603 74.3503C393.268 73.0854 393.315 71.7494 393.739 70.5114C394.162 69.2733 394.944 68.1886 395.984 67.3945C397.024 66.6004 398.276 66.1326 399.582 66.0502C400.888 65.9677 402.189 66.2744 403.321 66.9313C404.453 67.5883 405.364 68.5661 405.941 69.7411C406.517 70.916 406.731 72.2354 406.558 73.5325C406.323 75.2715 405.407 76.8462 404.013 77.911C402.618 78.9759 400.858 79.4438 399.118 79.212ZM400.796 66.7224C399.623 66.5647 398.429 66.7586 397.366 67.2794C396.303 67.8002 395.418 68.6246 394.824 69.6484C394.229 70.6721 393.952 71.8491 394.026 73.0306C394.101 74.212 394.524 75.3449 395.242 76.2858C395.961 77.2268 396.942 77.9335 398.062 78.3167C399.182 78.6999 400.391 78.7423 401.535 78.4386C402.679 78.1348 403.707 77.4986 404.49 76.6103C405.273 75.722 405.774 74.6217 405.931 73.4483C406.141 71.8754 405.718 70.2837 404.755 69.0223C403.793 67.7609 402.369 66.9328 400.797 66.7197L400.796 66.7224Z" fill="black"/>
</g>
<path d="M159 166.001L182.715 189.716V223.262H216.263L240.001 247.003L263.714 223.262H297.262V189.716L321 166.001L297.262 142.286V108.715H263.714L240.001 85L216.263 108.715H182.713V142.286L159 166.001ZM196.945 169.346L198.577 154.947L200.033 129.335L220.128 122.037L239.986 116.795L257.261 125.241L271.678 128.735L275.172 148.683L293.269 173.07L272.472 180.917L270.903 203.871L257.367 202.662L238.336 223.489L228.723 205.049L208.516 202.662L205.573 185.821L196.945 169.346Z" fill="white"/>
<path d="M169.125 163.801L189.243 183.919V212.361H217.685L237.803 232.454L257.921 212.361H286.364V183.919L306.456 163.801L286.364 143.683V115.243H257.921L237.803 95.125L217.685 115.243H189.243V143.685L169.125 163.801ZM201.14 163.801L211.878 153.062V137.873H227.067L237.806 127.135L248.545 137.873H263.733V153.062L274.472 163.801L263.733 174.54V189.728H248.545L237.806 200.467L227.067 189.728H211.878V174.54L201.14 163.801Z" fill="black"/>
<path d="M198.173 288.479C198.173 285.154 197.948 284.429 193.473 283.354C190.598 282.654 190.548 282.604 190.548 280.704C190.548 279.254 190.923 278.804 193.048 278.804C194.498 278.804 196.123 279.004 197.498 279.304L197.848 276.654C196.198 276.279 194.448 276.104 192.998 276.104C188.773 276.104 187.398 277.604 187.398 280.629C187.398 284.154 187.948 284.929 191.973 285.829C194.973 286.479 195.023 286.629 195.023 288.479C195.023 290.079 194.648 290.554 192.373 290.554C190.723 290.554 189.223 290.254 187.673 289.779L187.123 292.254C188.223 292.779 190.423 293.254 192.323 293.254C197.248 293.254 198.173 291.629 198.173 288.479ZM210.199 284.979C210.199 281.929 209.074 280.579 205.249 280.579C203.899 280.579 202.224 280.804 201.074 281.154L201.449 283.479C202.524 283.254 203.724 283.104 204.824 283.104C206.774 283.104 207.149 283.579 207.149 284.929V286.204H204.224C201.749 286.204 200.674 287.154 200.674 289.629C200.674 291.729 201.624 293.254 203.849 293.254C205.074 293.254 206.374 292.904 207.474 292.179L207.699 293.004H210.199V284.979ZM207.149 290.204C206.574 290.529 205.749 290.829 204.849 290.829C203.899 290.829 203.624 290.454 203.624 289.604C203.624 288.679 203.899 288.404 204.899 288.404H207.149V290.204ZM216.504 293.004V275.429L213.454 275.854V293.004H216.504ZM229.022 284.979C229.022 281.929 227.897 280.579 224.072 280.579C222.722 280.579 221.047 280.804 219.897 281.154L220.272 283.479C221.347 283.254 222.547 283.104 223.647 283.104C225.597 283.104 225.972 283.579 225.972 284.929V286.204H223.047C220.572 286.204 219.497 287.154 219.497 289.629C219.497 291.729 220.447 293.254 222.672 293.254C223.897 293.254 225.197 292.904 226.297 292.179L226.522 293.004H229.022V284.979ZM225.972 290.204C225.397 290.529 224.572 290.829 223.672 290.829C222.722 290.829 222.447 290.454 222.447 289.604C222.447 288.679 222.722 288.404 223.722 288.404H225.972V290.204ZM238.402 290.454C237.877 290.604 237.327 290.704 236.877 290.704C236.077 290.704 235.777 290.279 235.777 289.629V283.254H238.702L238.902 280.829H235.777V277.379L232.727 277.804V280.829H230.902V283.254H232.727V290.029C232.727 292.204 233.852 293.254 236.077 293.254C236.852 293.254 238.102 293.054 238.752 292.779L238.402 290.454ZM256.913 288.479C256.913 285.154 256.688 284.429 252.213 283.354C249.338 282.654 249.288 282.604 249.288 280.704C249.288 279.254 249.663 278.804 251.788 278.804C253.238 278.804 254.863 279.004 256.238 279.304L256.588 276.654C254.938 276.279 253.188 276.104 251.738 276.104C247.513 276.104 246.138 277.604 246.138 280.629C246.138 284.154 246.688 284.929 250.713 285.829C253.713 286.479 253.763 286.629 253.763 288.479C253.763 290.079 253.388 290.554 251.113 290.554C249.463 290.554 247.963 290.254 246.413 289.779L245.863 292.254C246.963 292.779 249.163 293.254 251.063 293.254C255.988 293.254 256.913 291.629 256.913 288.479ZM269.992 280.829H266.867L264.067 290.079L261.292 280.829H258.167L262.017 293.004H263.092L261.567 297.929H264.467L266.092 293.004L269.992 280.829ZM281.98 293.004V284.179C281.98 282.004 281.255 280.579 279.23 280.579C277.805 280.579 275.88 281.104 274.355 281.854L274.055 280.829H271.73V293.004H274.78V284.554C275.88 283.979 277.205 283.529 277.955 283.529C278.655 283.529 278.93 283.854 278.93 284.504V293.004H281.98ZM290.054 293.254C291.054 293.254 292.229 293.079 293.029 292.804L292.654 290.304C291.779 290.529 290.904 290.629 290.129 290.629C288.379 290.629 287.854 290.104 287.854 288.604V285.229C287.854 283.729 288.379 283.204 290.129 283.204C290.729 283.204 291.829 283.304 292.654 283.529L293.029 281.029C292.129 280.729 290.904 280.579 290.054 280.579C286.229 280.579 284.804 281.979 284.804 285.254V288.579C284.804 291.854 286.229 293.254 290.054 293.254Z" fill="black"/>
<defs>
<filter id="filter0_d_1310_80" x="25.8125" y="20.8164" width="83.0117" height="88.0117" filterUnits="userSpaceOnUse" color-interpolation-filters="sRGB">
<feFlood flood-opacity="0" result="BackgroundImageFix"/>
<feColorMatrix in="SourceAlpha" type="matrix" values="0 0 0 0 0 0 0 0 0 0 0 0 0 0 0 0 0 0 127 0" result="hardAlpha"/>
<feOffset dy="5"/>
<feComposite in2="hardAlpha" operator="out"/>
<feColorMatrix type="matrix" values="0 0 0 0 0 0 0 0 0 0 0 0 0 0 0 0 0 0 1 0"/>
<feBlend mode="normal" in2="BackgroundImageFix" result="effect1_dropShadow_1310_80"/>
<feBlend mode="normal" in="SourceGraphic" in2="effect1_dropShadow_1310_80" result="shape"/>
</filter>
<linearGradient id="paint0_linear_1310_80" x1="389.222" y1="66.0816" x2="426.818" y2="76.3893" gradientUnits="userSpaceOnUse">
<stop stop-color="#90C3FF"/>
<stop offset="0.710173" stop-color="#D5EE71"/>
<stop offset="1" stop-color="#B1FF32"/>
</linearGradient>
<clipPath id="clip0_1310_80">
<rect width="26.9672" height="26.9672" fill="white" transform="translate(381.9 62.2305) rotate(7.65199)"/>
</clipPath>
</defs>
</svg>
