<svg width="433" height="658" viewBox="0 0 433 658" fill="none" xmlns="http://www.w3.org/2000/svg">
<rect width="433" height="658" fill="white"/>
<g clip-path="url(#clip0_1814_778)">
<g filter="url(#filter0_d_1814_778)">
<circle cx="218.17" cy="323.417" r="150" fill="white"/>
</g>
<path d="M217 174C134.158 174 67 241.158 67 324C67 406.842 134.158 474 217 474C299.842 474 367 406.842 367 324C366.907 241.197 299.803 174.093 217 174ZM333.165 245.951L322.769 290.14L268.001 308.395L222 271.6V217.384L274.5 196.385C298.27 207.154 318.577 224.312 333.165 245.951ZM334 400.726L284.415 408.556L257.415 372.889L271.17 317.889L325.33 299.84L356.355 337.069C354.241 359.801 346.563 381.664 334 400.726ZM149.805 408.59L100 400.726C87.437 381.659 79.7612 359.791 77.6494 337.054L108.65 299.825L162.811 317.875L176.565 372.904L149.805 408.59ZM77.0439 322.135C77.3101 299.83 82.9375 277.914 93.4502 258.241L101.561 292.74L77.0439 322.135ZM185.904 369L172.64 315.89L217 280.404L261.37 315.904L248.096 369H185.904ZM332.439 292.721L340.55 258.221C351.062 277.894 356.69 299.808 356.956 322.115L332.439 292.721ZM260.865 191.075L217 208.619L172.901 191.156C201.446 181.642 232.303 181.615 260.865 191.075ZM159.261 196.5L212 217.401V271.6L165.999 308.395L111.231 290.14L100.835 245.951C115.374 224.391 135.594 207.276 159.261 196.5ZM108.355 412.169L149 418.59L173.58 457.091C147.979 448.683 125.337 433.089 108.355 412.169ZM187.916 460.941L158.079 414.229L184.5 379H249.5L276.299 414.4L250.301 459.964C229.849 465.001 208.523 465.343 187.92 460.965L187.916 460.941ZM264.19 455.794L285.501 418.5L325.665 412.164C309.529 432.035 288.272 447.12 264.19 455.794Z" fill="black"/>
</g>
<path d="M36.504 54.24C35.176 54.24 34.048 54 33.12 53.52C32.192 53.04 31.36 52.336 30.624 51.408L32.496 49.536C32.96 50.208 33.512 50.736 34.152 51.12C34.792 51.488 35.608 51.672 36.6 51.672C37.528 51.672 38.264 51.48 38.808 51.096C39.368 50.712 39.648 50.184 39.648 49.512C39.648 48.952 39.504 48.496 39.216 48.144C38.928 47.792 38.544 47.504 38.064 47.28C37.6 47.04 37.08 46.832 36.504 46.656C35.944 46.464 35.376 46.256 34.8 46.032C34.24 45.792 33.72 45.496 33.24 45.144C32.776 44.792 32.4 44.336 32.112 43.776C31.824 43.216 31.68 42.504 31.68 41.64C31.68 40.648 31.92 39.808 32.4 39.12C32.896 38.416 33.56 37.88 34.392 37.512C35.224 37.144 36.152 36.96 37.176 36.96C38.28 36.96 39.264 37.176 40.128 37.608C41.008 38.04 41.72 38.592 42.264 39.264L40.392 41.136C39.912 40.592 39.408 40.192 38.88 39.936C38.368 39.664 37.776 39.528 37.104 39.528C36.272 39.528 35.616 39.696 35.136 40.032C34.672 40.368 34.44 40.84 34.44 41.448C34.44 41.96 34.584 42.376 34.872 42.696C35.16 43 35.536 43.264 36 43.488C36.48 43.696 37 43.896 37.56 44.088C38.136 44.28 38.704 44.496 39.264 44.736C39.84 44.976 40.36 45.288 40.824 45.672C41.304 46.04 41.688 46.52 41.976 47.112C42.264 47.704 42.408 48.448 42.408 49.344C42.408 50.848 41.872 52.04 40.8 52.92C39.744 53.8 38.312 54.24 36.504 54.24ZM49.5279 54.24C48.5519 54.24 47.6799 54.024 46.9119 53.592C46.1599 53.16 45.5679 52.568 45.1359 51.816C44.7199 51.048 44.5119 50.168 44.5119 49.176V42.48H47.1519V49.056C47.1519 49.616 47.2399 50.096 47.4159 50.496C47.6079 50.88 47.8799 51.176 48.2319 51.384C48.5999 51.592 49.0319 51.696 49.5279 51.696C50.2959 51.696 50.8799 51.472 51.2799 51.024C51.6959 50.56 51.9039 49.904 51.9039 49.056V42.48H54.5439V49.176C54.5439 50.184 54.3279 51.072 53.8959 51.84C53.4799 52.592 52.8959 53.184 52.1439 53.616C51.3919 54.032 50.5199 54.24 49.5279 54.24ZM65.0944 54V47.352C65.0944 46.584 64.8464 45.952 64.3504 45.456C63.8704 44.96 63.2464 44.712 62.4784 44.712C61.9664 44.712 61.5104 44.824 61.1104 45.048C60.7104 45.272 60.3984 45.584 60.1744 45.984C59.9504 46.384 59.8384 46.84 59.8384 47.352L58.8064 46.776C58.8064 45.896 58.9984 45.12 59.3824 44.448C59.7664 43.76 60.2944 43.224 60.9664 42.84C61.6544 42.44 62.4224 42.24 63.2704 42.24C64.1344 42.24 64.9024 42.464 65.5744 42.912C66.2464 43.344 66.7744 43.912 67.1584 44.616C67.5424 45.304 67.7344 46.024 67.7344 46.776V54H65.0944ZM57.1984 54V42.48H59.8384V54H57.1984ZM75.2411 54.24C74.2011 54.24 73.2571 53.976 72.4091 53.448C71.5771 52.92 70.9131 52.208 70.4171 51.312C69.9371 50.4 69.6971 49.384 69.6971 48.264C69.6971 47.128 69.9371 46.112 70.4171 45.216C70.9131 44.304 71.5771 43.584 72.4091 43.056C73.2571 42.512 74.2011 42.24 75.2411 42.24C76.1211 42.24 76.8971 42.432 77.5691 42.816C78.2571 43.184 78.8011 43.696 79.2011 44.352C79.6011 45.008 79.8011 45.752 79.8011 46.584V49.896C79.8011 50.728 79.6011 51.472 79.2011 52.128C78.8171 52.784 78.2811 53.304 77.5931 53.688C76.9051 54.056 76.1211 54.24 75.2411 54.24ZM75.6731 51.744C76.3291 51.744 76.8971 51.6 77.3771 51.312C77.8731 51.008 78.2571 50.592 78.5291 50.064C78.8011 49.536 78.9371 48.928 78.9371 48.24C78.9371 47.552 78.8011 46.944 78.5291 46.416C78.2571 45.888 77.8731 45.48 77.3771 45.192C76.8971 44.888 76.3291 44.736 75.6731 44.736C75.0331 44.736 74.4651 44.888 73.9691 45.192C73.4891 45.48 73.1051 45.888 72.8171 46.416C72.5451 46.944 72.4091 47.552 72.4091 48.24C72.4091 48.928 72.5451 49.536 72.8171 50.064C73.1051 50.592 73.4891 51.008 73.9691 51.312C74.4651 51.6 75.0331 51.744 75.6731 51.744ZM81.4091 54H78.7691V50.904L79.2251 48.096L78.7691 45.312V36.72H81.4091V54ZM89.163 54.24C88.123 54.24 87.179 53.976 86.331 53.448C85.499 52.92 84.835 52.208 84.339 51.312C83.859 50.4 83.619 49.384 83.619 48.264C83.619 47.128 83.859 46.112 84.339 45.216C84.835 44.304 85.499 43.584 86.331 43.056C87.179 42.512 88.123 42.24 89.163 42.24C90.043 42.24 90.819 42.432 91.491 42.816C92.179 43.184 92.723 43.696 93.123 44.352C93.523 45.008 93.723 45.752 93.723 46.584V49.896C93.723 50.728 93.523 51.472 93.123 52.128C92.739 52.784 92.203 53.304 91.515 53.688C90.827 54.056 90.043 54.24 89.163 54.24ZM89.595 51.744C90.571 51.744 91.355 51.416 91.947 50.76C92.555 50.104 92.859 49.264 92.859 48.24C92.859 47.552 92.723 46.944 92.451 46.416C92.179 45.888 91.795 45.48 91.299 45.192C90.819 44.888 90.251 44.736 89.595 44.736C88.955 44.736 88.387 44.888 87.891 45.192C87.411 45.48 87.027 45.888 86.739 46.416C86.467 46.944 86.331 47.552 86.331 48.24C86.331 48.928 86.467 49.536 86.739 50.064C87.027 50.592 87.411 51.008 87.891 51.312C88.387 51.6 88.955 51.744 89.595 51.744ZM92.691 54V50.904L93.147 48.096L92.691 45.312V42.48H95.331V54H92.691ZM101.981 54.12L97.0609 42.48H99.9649L103.325 51.024H102.485L106.037 42.48H108.965L103.613 54.12H101.981ZM98.5489 58.8L102.125 51.432L103.613 54.12L101.477 58.8H98.5489ZM115.847 54V37.2H118.607V54H115.847ZM117.743 46.8V44.28H126.287V46.8H117.743ZM117.743 39.72V37.2H126.695V39.72H117.743ZM133.916 54.24C132.796 54.24 131.78 53.976 130.868 53.448C129.956 52.904 129.228 52.176 128.684 51.264C128.156 50.352 127.892 49.336 127.892 48.216C127.892 47.096 128.156 46.088 128.684 45.192C129.228 44.296 129.956 43.584 130.868 43.056C131.78 42.512 132.796 42.24 133.916 42.24C135.052 42.24 136.076 42.504 136.988 43.032C137.9 43.56 138.62 44.28 139.148 45.192C139.692 46.088 139.964 47.096 139.964 48.216C139.964 49.336 139.692 50.352 139.148 51.264C138.62 52.176 137.9 52.904 136.988 53.448C136.076 53.976 135.052 54.24 133.916 54.24ZM133.916 51.696C134.572 51.696 135.148 51.552 135.644 51.264C136.156 50.96 136.548 50.544 136.82 50.016C137.108 49.488 137.252 48.888 137.252 48.216C137.252 47.544 137.108 46.952 136.82 46.44C136.532 45.928 136.14 45.528 135.644 45.24C135.148 44.936 134.572 44.784 133.916 44.784C133.276 44.784 132.7 44.936 132.188 45.24C131.692 45.528 131.3 45.928 131.012 46.44C130.74 46.952 130.604 47.544 130.604 48.216C130.604 48.888 130.74 49.488 131.012 50.016C131.3 50.544 131.692 50.96 132.188 51.264C132.7 51.552 133.276 51.696 133.916 51.696ZM147.439 54.24C146.319 54.24 145.303 53.976 144.391 53.448C143.479 52.904 142.751 52.176 142.207 51.264C141.679 50.352 141.415 49.336 141.415 48.216C141.415 47.096 141.679 46.088 142.207 45.192C142.751 44.296 143.479 43.584 144.391 43.056C145.303 42.512 146.319 42.24 147.439 42.24C148.575 42.24 149.599 42.504 150.511 43.032C151.423 43.56 152.143 44.28 152.671 45.192C153.215 46.088 153.487 47.096 153.487 48.216C153.487 49.336 153.215 50.352 152.671 51.264C152.143 52.176 151.423 52.904 150.511 53.448C149.599 53.976 148.575 54.24 147.439 54.24ZM147.439 51.696C148.095 51.696 148.671 51.552 149.167 51.264C149.679 50.96 150.071 50.544 150.343 50.016C150.631 49.488 150.775 48.888 150.775 48.216C150.775 47.544 150.631 46.952 150.343 46.44C150.055 45.928 149.663 45.528 149.167 45.24C148.671 44.936 148.095 44.784 147.439 44.784C146.799 44.784 146.223 44.936 145.711 45.24C145.215 45.528 144.823 45.928 144.535 46.44C144.263 46.952 144.127 47.544 144.127 48.216C144.127 48.888 144.263 49.488 144.535 50.016C144.823 50.544 145.215 50.96 145.711 51.264C146.223 51.552 146.799 51.696 147.439 51.696ZM157.107 54V37.68H159.747V54H157.107ZM154.347 44.88V42.48H162.507V44.88H154.347ZM170.593 54.24C169.713 54.24 168.929 54.056 168.241 53.688C167.553 53.304 167.009 52.784 166.609 52.128C166.225 51.472 166.033 50.728 166.033 49.896V46.584C166.033 45.752 166.233 45.008 166.633 44.352C167.033 43.696 167.577 43.184 168.265 42.816C168.953 42.432 169.729 42.24 170.593 42.24C171.633 42.24 172.569 42.512 173.401 43.056C174.249 43.584 174.913 44.304 175.393 45.216C175.889 46.112 176.137 47.128 176.137 48.264C176.137 49.384 175.889 50.4 175.393 51.312C174.913 52.208 174.249 52.92 173.401 53.448C172.569 53.976 171.633 54.24 170.593 54.24ZM170.161 51.744C170.801 51.744 171.361 51.6 171.841 51.312C172.337 51.008 172.721 50.592 172.993 50.064C173.281 49.536 173.425 48.928 173.425 48.24C173.425 47.552 173.281 46.944 172.993 46.416C172.721 45.888 172.337 45.48 171.841 45.192C171.361 44.888 170.801 44.736 170.161 44.736C169.521 44.736 168.953 44.888 168.457 45.192C167.961 45.48 167.577 45.888 167.305 46.416C167.033 46.944 166.897 47.552 166.897 48.24C166.897 48.928 167.033 49.536 167.305 50.064C167.577 50.592 167.961 51.008 168.457 51.312C168.953 51.6 169.521 51.744 170.161 51.744ZM164.425 54V36.72H167.065V45.312L166.609 48.096L167.065 50.904V54H164.425ZM183.171 54.24C182.131 54.24 181.187 53.976 180.339 53.448C179.507 52.92 178.843 52.208 178.347 51.312C177.867 50.4 177.627 49.384 177.627 48.264C177.627 47.128 177.867 46.112 178.347 45.216C178.843 44.304 179.507 43.584 180.339 43.056C181.187 42.512 182.131 42.24 183.171 42.24C184.051 42.24 184.827 42.432 185.499 42.816C186.187 43.184 186.731 43.696 187.131 44.352C187.531 45.008 187.731 45.752 187.731 46.584V49.896C187.731 50.728 187.531 51.472 187.131 52.128C186.747 52.784 186.211 53.304 185.523 53.688C184.835 54.056 184.051 54.24 183.171 54.24ZM183.603 51.744C184.579 51.744 185.363 51.416 185.955 50.76C186.563 50.104 186.867 49.264 186.867 48.24C186.867 47.552 186.731 46.944 186.459 46.416C186.187 45.888 185.803 45.48 185.307 45.192C184.827 44.888 184.259 44.736 183.603 44.736C182.963 44.736 182.395 44.888 181.899 45.192C181.419 45.48 181.035 45.888 180.747 46.416C180.475 46.944 180.339 47.552 180.339 48.24C180.339 48.928 180.475 49.536 180.747 50.064C181.035 50.592 181.419 51.008 181.899 51.312C182.395 51.6 182.963 51.744 183.603 51.744ZM186.699 54V50.904L187.155 48.096L186.699 45.312V42.48H189.339V54H186.699ZM192.269 54V36.72H194.909V54H192.269ZM197.847 54V36.72H200.487V54H197.847Z" fill="black"/>
<path d="M37.146 86.18C36.246 86.18 35.412 86.018 34.644 85.694C33.876 85.358 33.204 84.896 32.628 84.308C32.064 83.72 31.626 83.036 31.314 82.256C31.002 81.476 30.846 80.642 30.846 79.754C30.846 78.854 31.002 78.014 31.314 77.234C31.626 76.454 32.064 75.776 32.628 75.2C33.204 74.612 33.87 74.156 34.626 73.832C35.394 73.496 36.228 73.328 37.128 73.328C38.112 73.328 38.976 73.496 39.72 73.832C40.464 74.168 41.124 74.624 41.7 75.2L40.53 76.37C40.134 75.926 39.648 75.578 39.072 75.326C38.508 75.074 37.86 74.948 37.128 74.948C36.468 74.948 35.862 75.068 35.31 75.308C34.758 75.536 34.278 75.866 33.87 76.298C33.462 76.73 33.144 77.24 32.916 77.828C32.7 78.416 32.592 79.058 32.592 79.754C32.592 80.45 32.7 81.092 32.916 81.68C33.144 82.268 33.462 82.778 33.87 83.21C34.278 83.642 34.758 83.978 35.31 84.218C35.862 84.446 36.468 84.56 37.128 84.56C37.908 84.56 38.586 84.434 39.162 84.182C39.738 83.918 40.224 83.564 40.62 83.12L41.79 84.272C41.214 84.872 40.536 85.34 39.756 85.676C38.988 86.012 38.118 86.18 37.146 86.18ZM46.9178 86.18C46.1378 86.18 45.4298 85.988 44.7938 85.604C44.1578 85.208 43.6538 84.674 43.2817 84.002C42.9218 83.33 42.7418 82.574 42.7418 81.734C42.7418 80.894 42.9218 80.138 43.2817 79.466C43.6538 78.794 44.1518 78.26 44.7758 77.864C45.4118 77.468 46.1258 77.27 46.9178 77.27C47.5658 77.27 48.1418 77.408 48.6458 77.684C49.1618 77.948 49.5758 78.32 49.8878 78.8C50.1998 79.268 50.3738 79.814 50.4098 80.438V83.012C50.3738 83.624 50.1998 84.17 49.8878 84.65C49.5878 85.13 49.1798 85.508 48.6638 85.784C48.1598 86.048 47.5778 86.18 46.9178 86.18ZM47.1878 84.65C47.9918 84.65 48.6398 84.38 49.1318 83.84C49.6238 83.288 49.8698 82.586 49.8698 81.734C49.8698 81.146 49.7558 80.636 49.5278 80.204C49.3118 79.76 48.9998 79.418 48.5918 79.178C48.1838 78.926 47.7098 78.8 47.1698 78.8C46.6298 78.8 46.1498 78.926 45.7298 79.178C45.3218 79.43 44.9978 79.778 44.7578 80.222C44.5298 80.654 44.4158 81.152 44.4158 81.716C44.4158 82.292 44.5298 82.802 44.7578 83.246C44.9978 83.678 45.3278 84.02 45.7478 84.272C46.1678 84.524 46.6478 84.65 47.1878 84.65ZM49.7618 86V83.696L50.0678 81.608L49.7618 79.538V77.45H51.3998V86H49.7618ZM56.4763 86.18C55.9963 86.18 55.5403 86.12 55.1083 86C54.6883 85.868 54.2983 85.688 53.9383 85.46C53.5783 85.22 53.2663 84.938 53.0023 84.614L54.0463 83.57C54.3583 83.954 54.7183 84.242 55.1263 84.434C55.5343 84.614 55.9903 84.704 56.4943 84.704C56.9983 84.704 57.3883 84.62 57.6643 84.452C57.9403 84.272 58.0783 84.026 58.0783 83.714C58.0783 83.402 57.9643 83.162 57.7363 82.994C57.5203 82.814 57.2383 82.67 56.8903 82.562C56.5423 82.442 56.1703 82.328 55.7743 82.22C55.3903 82.1 55.0243 81.95 54.6763 81.77C54.3283 81.59 54.0403 81.344 53.8123 81.032C53.5963 80.72 53.4883 80.306 53.4883 79.79C53.4883 79.274 53.6143 78.83 53.8663 78.458C54.1183 78.074 54.4663 77.78 54.9103 77.576C55.3663 77.372 55.9123 77.27 56.5483 77.27C57.2203 77.27 57.8143 77.39 58.3303 77.63C58.8583 77.858 59.2903 78.206 59.6263 78.674L58.5823 79.718C58.3423 79.406 58.0423 79.166 57.6823 78.998C57.3343 78.83 56.9383 78.746 56.4943 78.746C56.0263 78.746 55.6663 78.83 55.4143 78.998C55.1743 79.154 55.0543 79.376 55.0543 79.664C55.0543 79.952 55.1623 80.174 55.3783 80.33C55.5943 80.486 55.8763 80.618 56.2243 80.726C56.5843 80.834 56.9563 80.948 57.3403 81.068C57.7243 81.176 58.0903 81.326 58.4383 81.518C58.7863 81.71 59.0683 81.968 59.2843 82.292C59.5123 82.616 59.6263 83.042 59.6263 83.57C59.6263 84.374 59.3383 85.01 58.7623 85.478C58.1983 85.946 57.4363 86.18 56.4763 86.18ZM65.4 86.18C64.548 86.18 63.78 85.988 63.096 85.604C62.412 85.208 61.872 84.674 61.476 84.002C61.08 83.33 60.882 82.568 60.882 81.716C60.882 80.876 61.074 80.12 61.458 79.448C61.854 78.776 62.382 78.248 63.042 77.864C63.714 77.468 64.464 77.27 65.292 77.27C66.084 77.27 66.78 77.45 67.38 77.81C67.992 78.17 68.466 78.668 68.802 79.304C69.15 79.94 69.324 80.66 69.324 81.464C69.324 81.584 69.318 81.716 69.306 81.86C69.294 81.992 69.27 82.148 69.234 82.328H62.016V80.978H68.37L67.776 81.5C67.776 80.924 67.674 80.438 67.47 80.042C67.266 79.634 66.978 79.322 66.606 79.106C66.234 78.878 65.784 78.764 65.256 78.764C64.704 78.764 64.218 78.884 63.798 79.124C63.378 79.364 63.054 79.7 62.826 80.132C62.598 80.564 62.484 81.074 62.484 81.662C62.484 82.262 62.604 82.79 62.844 83.246C63.084 83.69 63.426 84.038 63.87 84.29C64.314 84.53 64.824 84.65 65.4 84.65C65.88 84.65 66.318 84.566 66.714 84.398C67.122 84.23 67.47 83.978 67.758 83.642L68.802 84.704C68.394 85.184 67.89 85.55 67.29 85.802C66.702 86.054 66.072 86.18 65.4 86.18ZM78.5965 86.18C77.6125 86.18 76.7725 86 76.0765 85.64C75.3805 85.28 74.7625 84.758 74.2225 84.074L75.3745 82.922C75.7705 83.474 76.2265 83.894 76.7425 84.182C77.2585 84.458 77.8945 84.596 78.6505 84.596C79.3945 84.596 79.9885 84.434 80.4325 84.11C80.8885 83.786 81.1165 83.342 81.1165 82.778C81.1165 82.31 81.0085 81.932 80.7925 81.644C80.5765 81.356 80.2825 81.122 79.9105 80.942C79.5505 80.75 79.1545 80.582 78.7225 80.438C78.2905 80.282 77.8585 80.12 77.4265 79.952C76.9945 79.772 76.5985 79.556 76.2385 79.304C75.8785 79.04 75.5845 78.698 75.3565 78.278C75.1405 77.858 75.0325 77.33 75.0325 76.694C75.0325 75.986 75.2005 75.386 75.5365 74.894C75.8845 74.39 76.3525 74.006 76.9405 73.742C77.5405 73.466 78.2125 73.328 78.9565 73.328C79.7725 73.328 80.5045 73.49 81.1525 73.814C81.8005 74.126 82.3285 74.54 82.7365 75.056L81.5845 76.208C81.2125 75.776 80.8105 75.452 80.3785 75.236C79.9585 75.02 79.4725 74.912 78.9205 74.912C78.2485 74.912 77.7145 75.062 77.3185 75.362C76.9225 75.65 76.7245 76.058 76.7245 76.586C76.7245 77.006 76.8325 77.348 77.0485 77.612C77.2765 77.864 77.5705 78.08 77.9305 78.26C78.2905 78.44 78.6865 78.608 79.1185 78.764C79.5625 78.908 80.0005 79.07 80.4325 79.25C80.8645 79.43 81.2605 79.658 81.6205 79.934C81.9805 80.21 82.2685 80.57 82.4845 81.014C82.7125 81.446 82.8265 81.992 82.8265 82.652C82.8265 83.756 82.4425 84.62 81.6745 85.244C80.9185 85.868 79.8925 86.18 78.5965 86.18ZM86.1329 86V73.868H87.7529V86H86.1329ZM84.0269 78.926V77.45H89.8589V78.926H84.0269ZM94.8838 86.18C94.1878 86.18 93.5578 86.024 92.9938 85.712C92.4418 85.388 92.0098 84.944 91.6978 84.38C91.3858 83.816 91.2298 83.162 91.2298 82.418V77.45H92.8498V82.346C92.8498 82.814 92.9278 83.222 93.0838 83.57C93.2518 83.906 93.4918 84.164 93.8038 84.344C94.1158 84.524 94.4818 84.614 94.9018 84.614C95.5378 84.614 96.0358 84.416 96.3958 84.02C96.7558 83.612 96.9358 83.054 96.9358 82.346V77.45H98.5558V82.418C98.5558 83.162 98.3998 83.816 98.0878 84.38C97.7758 84.944 97.3438 85.388 96.7918 85.712C96.2518 86.024 95.6158 86.18 94.8838 86.18ZM104.345 86.18C103.553 86.18 102.845 85.988 102.221 85.604C101.597 85.208 101.099 84.674 100.727 84.002C100.367 83.33 100.187 82.574 100.187 81.734C100.187 80.894 100.367 80.138 100.727 79.466C101.099 78.794 101.597 78.26 102.221 77.864C102.845 77.468 103.553 77.27 104.345 77.27C104.981 77.27 105.557 77.408 106.073 77.684C106.589 77.948 107.003 78.32 107.315 78.8C107.639 79.268 107.819 79.814 107.855 80.438V83.012C107.819 83.624 107.645 84.17 107.333 84.65C107.021 85.13 106.607 85.508 106.091 85.784C105.575 86.048 104.993 86.18 104.345 86.18ZM104.615 84.65C105.155 84.65 105.623 84.524 106.019 84.272C106.427 84.02 106.745 83.678 106.973 83.246C107.201 82.802 107.315 82.298 107.315 81.734C107.315 81.146 107.195 80.636 106.955 80.204C106.727 79.772 106.409 79.43 106.001 79.178C105.605 78.926 105.137 78.8 104.597 78.8C104.057 78.8 103.583 78.926 103.175 79.178C102.767 79.43 102.443 79.778 102.203 80.222C101.975 80.654 101.861 81.152 101.861 81.716C101.861 82.292 101.975 82.802 102.203 83.246C102.443 83.678 102.767 84.02 103.175 84.272C103.595 84.524 104.075 84.65 104.615 84.65ZM108.845 86H107.207V83.696L107.513 81.608L107.207 79.538V73.148H108.845V86ZM114.012 86.072L110.304 77.45H112.104L114.858 84.2H114.282L117.18 77.45H118.98L114.984 86.072H114.012ZM111.564 89.582L114.084 84.416L114.984 86.072L113.364 89.582H111.564Z" fill="#828282"/>
<defs>
<filter id="filter0_d_1814_778" x="28.1697" y="149.417" width="380" height="380" filterUnits="userSpaceOnUse" color-interpolation-filters="sRGB">
<feFlood flood-opacity="0" result="BackgroundImageFix"/>
<feColorMatrix in="SourceAlpha" type="matrix" values="0 0 0 0 0 0 0 0 0 0 0 0 0 0 0 0 0 0 127 0" result="hardAlpha"/>
<feOffset dy="16"/>
<feGaussianBlur stdDeviation="20"/>
<feComposite in2="hardAlpha" operator="out"/>
<feColorMatrix type="matrix" values="0 0 0 0 0.760784 0 0 0 0 0.772549 0 0 0 0 0.784314 0 0 0 0.2 0"/>
<feBlend mode="normal" in2="BackgroundImageFix" result="effect1_dropShadow_1814_778"/>
<feBlend mode="normal" in="SourceGraphic" in2="effect1_dropShadow_1814_778" result="shape"/>
</filter>
<clipPath id="clip0_1814_778">
<rect width="300" height="300" fill="white" transform="translate(67 174)"/>
</clipPath>
</defs>
</svg>
