<svg width="410" height="410" viewBox="0 0 410 410" fill="none" xmlns="http://www.w3.org/2000/svg">
<g clip-path="url(#clip0_1310_438)">
<g filter="url(#filter0_d_1310_438)">
<circle cx="202.147" cy="204.909" r="154.76" transform="rotate(2.11042 202.147 204.909)" fill="white"/>
</g>
<path d="M141.018 63.7586C63.1368 98.9702 28.5454 190.652 63.7571 268.534C98.9687 346.415 190.651 381.006 268.532 345.795C346.414 310.583 381.005 218.901 345.793 141.02C310.511 63.2145 218.902 28.6507 141.018 63.7586ZM280.809 82.0255L289.819 127.987L246.089 168.428L187.203 153.389L164.159 102.419L204.59 60.3632C231.513 60.3842 257.898 67.8833 280.809 82.0255ZM347.381 227.178L304.093 255.615L263.55 233.56L253.104 176.007L296.349 136.018L341.341 157.83C349.015 180.1 351.09 203.917 347.381 227.178ZM177.559 312.862L127.394 326.639C107.478 314.053 90.967 296.757 79.3175 276.28L92.638 228.103L151.227 222.051L187.548 267.939L177.559 312.862ZM72.4068 262.511C63.1764 241.429 59.1513 218.433 60.6727 195.469L82.9613 224.456L72.4068 262.511ZM194.668 260.299L159.624 216.007L186.245 163.791L243.047 178.306L253.136 233.865L194.668 260.299ZM300.007 126.303L292.968 90.4222C311.213 104.449 325.818 122.659 335.55 143.517L300.007 126.303ZM189.514 61.1667L155.733 96.3047L106.852 98.6313C129.643 77.5539 158.641 64.413 189.514 61.1667ZM96.2998 109.453L154.765 106.686L177.802 157.64L150.195 211.783L90.9475 217.901L62.3918 180.776C66.8958 154.328 78.6304 129.644 96.2998 109.453ZM140.112 333.845L181.052 322.606L220.525 348.354C192.883 351.331 164.969 346.295 140.112 333.845ZM235.639 345.88L187.734 314.647L197.599 270.297L258.707 242.669L298.948 264.559L293.873 318.445C276.787 331.873 256.884 341.259 235.654 345.901L235.639 345.88ZM305.158 308.621L309.341 264.501L344.407 241.474C337.684 267.013 324.111 290.23 305.158 308.621Z" fill="black"/>
</g>
<defs>
<filter id="filter0_d_1310_438" x="7.38477" y="26.1484" width="389.525" height="389.523" filterUnits="userSpaceOnUse" color-interpolation-filters="sRGB">
<feFlood flood-opacity="0" result="BackgroundImageFix"/>
<feColorMatrix in="SourceAlpha" type="matrix" values="0 0 0 0 0 0 0 0 0 0 0 0 0 0 0 0 0 0 127 0" result="hardAlpha"/>
<feOffset dy="16"/>
<feGaussianBlur stdDeviation="20"/>
<feComposite in2="hardAlpha" operator="out"/>
<feColorMatrix type="matrix" values="0 0 0 0 0.760784 0 0 0 0 0.772549 0 0 0 0 0.784314 0 0 0 0.2 0"/>
<feBlend mode="normal" in2="BackgroundImageFix" result="effect1_dropShadow_1310_438"/>
<feBlend mode="normal" in="SourceGraphic" in2="effect1_dropShadow_1310_438" result="shape"/>
</filter>
<clipPath id="clip0_1310_438">
<rect width="309.523" height="309.523" fill="white" transform="translate(0 127.516) rotate(-24.3287)"/>
</clipPath>
</defs>
</svg>
