<svg width="81" height="88" viewBox="0 0 81 88" fill="none" xmlns="http://www.w3.org/2000/svg">
<g opacity="0.81">
<mask id="mask0_1242_43" style="mask-type:alpha" maskUnits="userSpaceOnUse" x="0" y="0" width="81" height="88">
<path d="M7.2461 86.5L1.60289 1.5H79.4089L74.3927 86.5H7.2461Z" fill="#747BFE" stroke="#F6FCDE" stroke-width="3"/>
</mask>
<g mask="url(#mask0_1242_43)">
<path d="M1.2742 19.1924C0.584561 8.80485 8.82426 0 19.2347 0H61.9064C72.2645 0 80.4854 8.72034 79.8752 19.0604L76.8064 71.0604C76.2451 80.5731 68.367 88 58.8377 88H22.687C13.2087 88 5.3544 80.6498 4.72652 71.1924L1.2742 19.1924Z" fill="#747BFE"/>
<path d="M21.5918 13.3643C27.0279 14.1187 32.298 23.2781 31.5389 28.7486C30.7798 34.219 24.2788 33.9288 18.8428 33.1745C13.4068 32.4201 9.6154 27.3739 10.3745 21.9035C11.1337 16.4331 16.1558 12.61 21.5918 13.3643Z" fill="#989CF6"/>
<path d="M22 55.6892C22 61.936 16.0063 67 8.61262 67C1.21897 67 -4.77476 61.936 -4.77476 55.6892C-4.77476 49.4424 -6.69805 40 0.695593 40C8.08924 40 22 49.4424 22 55.6892Z" fill="#6067F7"/>
<path d="M64 -0.819743C64 4.25037 57.0604 13 48.5 13C39.9396 13 33 4.25037 33 -0.819743C33 -5.88986 39.9396 -10 48.5 -10C57.0604 -10 64 -5.88986 64 -0.819743Z" fill="#989CF6"/>
<path d="M63 81.6303C63 89.7582 54.5466 106 46.8806 106C39.2146 106 33 99.411 33 91.283C33 83.1551 39.2146 76.5661 46.8806 76.5661C54.5466 76.5661 63 73.5023 63 81.6303Z" fill="#989CF6"/>
<path d="M81 44.5C81 51.9558 76.1808 58 70.2361 58C64.2914 58 56 51.9558 56 44.5C56 37.0442 64.2914 31 70.2361 31C76.1808 31 81 37.0442 81 44.5Z" fill="#989CF6"/>
</g>
</g>
<path d="M57.9096 29.5904C57.9096 29.0381 57.4619 28.5904 56.9096 28.5904L47.9096 28.5904C47.3574 28.5904 46.9096 29.0381 46.9096 29.5904C46.9096 30.1426 47.3574 30.5904 47.9096 30.5904L55.9096 30.5904L55.9096 38.5904C55.9096 39.1426 56.3574 39.5904 56.9096 39.5904C57.4619 39.5904 57.9096 39.1426 57.9096 38.5904L57.9096 29.5904ZM25.797 62.1173L57.6168 30.2975L56.2025 28.8832L24.3827 60.703L25.797 62.1173Z" fill="white"/>
</svg>
