<svg width="35" height="35" viewBox="0 0 35 35" fill="none" xmlns="http://www.w3.org/2000/svg">
<path d="M11.0106 31.7198C24.2149 31.7198 31.4392 20.7775 31.4392 11.2913C31.4392 10.9837 31.4323 10.6692 31.4187 10.3616C32.824 9.34528 34.0368 8.08644 35 6.64421C33.6912 7.22653 32.3016 7.60683 30.8786 7.77214C32.3769 6.87406 33.4987 5.46321 34.0361 3.80114C32.6266 4.63646 31.0852 5.22571 29.4779 5.54363C28.395 4.39293 26.9631 3.63103 25.4037 3.37573C23.8443 3.12042 22.2442 3.38593 20.8509 4.13121C19.4575 4.87648 18.3485 6.06001 17.6952 7.49881C17.0419 8.93761 16.8808 10.5515 17.2368 12.0911C14.3828 11.9479 11.5907 11.2065 9.04164 9.91496C6.49254 8.62345 4.2433 6.81066 2.43975 4.59411C1.52308 6.17455 1.24258 8.04472 1.65525 9.82453C2.06792 11.6044 3.1428 13.1603 4.66143 14.176C3.52133 14.1399 2.40621 13.8329 1.4082 13.2805V13.3694C1.40718 15.028 1.98056 16.6357 3.03087 17.9193C4.08118 19.2029 5.5436 20.0831 7.16953 20.4104C6.11341 20.6994 5.00497 20.7415 3.92998 20.5335C4.38879 21.9598 5.28146 23.2074 6.48342 24.102C7.68537 24.9966 9.13663 25.4936 10.6347 25.5237C8.09145 27.5214 4.94984 28.605 1.71582 28.5999C1.14229 28.599 0.569332 28.5638 0 28.4946C3.28542 30.6024 7.10723 31.7218 11.0106 31.7198Z" fill="#CBCBCB"/>
</svg>
